<?xml version="1.0" encoding="UTF-8" standalone="no"?>
<!-- Created with Inkscape (http://www.inkscape.org/) -->

<svg
   xmlns:dc="http://purl.org/dc/elements/1.1/"
   xmlns:cc="http://creativecommons.org/ns#"
   xmlns:rdf="http://www.w3.org/1999/02/22-rdf-syntax-ns#"
   xmlns:svg="http://www.w3.org/2000/svg"
   xmlns="http://www.w3.org/2000/svg"
   xmlns:xlink="http://www.w3.org/1999/xlink"
   xmlns:sodipodi="http://sodipodi.sourceforge.net/DTD/sodipodi-0.dtd"
   xmlns:inkscape="http://www.inkscape.org/namespaces/inkscape"
   width="1008"
   height="512"
   id="svg2"
   version="1.1"
   inkscape:version="0.48.2 r9819"
   sodipodi:docname="BQT application.svg">
  <defs
     id="defs4">
    <linearGradient
       id="linearGradient4831">
      <stop
         id="stop4833"
         offset="0"
         style="stop-color:#000000;stop-opacity:1;" />
      <stop
         id="stop4835"
         offset="1"
         style="stop-color:#000000;stop-opacity:0;" />
    </linearGradient>
    <linearGradient
       inkscape:collect="always"
       id="linearGradient4585">
      <stop
         style="stop-color:#000000;stop-opacity:0.5462963"
         offset="0"
         id="stop4587" />
      <stop
         style="stop-color:#000000;stop-opacity:0;"
         offset="1"
         id="stop4589" />
    </linearGradient>
    <linearGradient
       id="linearGradient4567">
      <stop
         style="stop-color:#ffffff;stop-opacity:0.69672132;"
         offset="0"
         id="stop4569" />
      <stop
         style="stop-color:#ffffff;stop-opacity:0;"
         offset="1"
         id="stop4571" />
    </linearGradient>
    <linearGradient
       id="linearGradient4541">
      <stop
         style="stop-color:#000000;stop-opacity:0.51639342;"
         offset="0"
         id="stop4543" />
      <stop
         style="stop-color:#000000;stop-opacity:0;"
         offset="1"
         id="stop4545" />
    </linearGradient>
    <linearGradient
       id="linearGradient4531">
      <stop
         style="stop-color:#ffffff;stop-opacity:0.79508191;"
         offset="0"
         id="stop4533" />
      <stop
         style="stop-color:#ffffff;stop-opacity:0;"
         offset="1"
         id="stop4535" />
    </linearGradient>
    <linearGradient
       id="linearGradient4688">
      <stop
         style="stop-color:#000000;stop-opacity:0.38524589;"
         offset="0"
         id="stop4690" />
      <stop
         style="stop-color:#000000;stop-opacity:0;"
         offset="1"
         id="stop4692" />
    </linearGradient>
    <linearGradient
       id="linearGradient3680">
      <stop
         style="stop-color:#ffffff;stop-opacity:1;"
         offset="0"
         id="stop3682" />
      <stop
         style="stop-color:#cbcbcb;stop-opacity:1;"
         offset="1"
         id="stop3684" />
    </linearGradient>
    <linearGradient
       id="linearGradient3672">
      <stop
         style="stop-color:#5e5e5e;stop-opacity:1;"
         offset="0"
         id="stop3674" />
      <stop
         style="stop-color:#000000;stop-opacity:1;"
         offset="1"
         id="stop3676" />
    </linearGradient>
    <clipPath
       clipPathUnits="userSpaceOnUse"
       id="clipPath4846">
      <path
         inkscape:connector-curvature="0"
         style="opacity:0.98000004;fill:#000000;fill-opacity:1;fill-rule:nonzero;stroke:none"
         d="m 253,136.00641 c -44.16,0 -80,35.84 -80,80 0,20.77582 7.93764,39.7105 20.9375,53.9375 2.56728,-8.08322 10.13277,-13.9375 19.0625,-13.9375 11.04,0 20,8.96 20,20 0,6.1296 -2.76279,11.61159 -7.10938,15.28125 8.46616,3.05167 17.59575,4.71875 27.10938,4.71875 44.16,0 80,-35.84 80,-80 0,-0.57502 -0.0192,-1.1466 -0.0312,-1.71875 -3.12028,1.10047 -6.47344,1.71875 -9.96875,1.71875 -16.56,0 -30,-13.44 -30,-30 0,-11.65867 6.66867,-21.76976 16.39062,-26.73437 C 294.92444,144.89274 274.99277,136.00641 253,136.00641 z m 100,20 c -11.04,0 -20,8.96 -20,20 0,11.04 8.96,20 20,20 11.04,0 20,-8.96 20,-20 0,-11.04 -8.96,-20 -20,-20 z m -110,20 c 16.56,0 30,13.44 30,30 0,16.56 -13.44,30 -30,30 -16.56,0 -30,-13.44 -30,-30 0,-16.56 13.44,-30 30,-30 z m 59.48437,60 c 0.17037,-0.009 0.34313,0 0.51563,0 5.52,0 10,4.48 10,10 0,5.52 -4.48,10 -10,10 -5.52,0 -10,-4.48 -10,-10 0,-5.3475 4.2031,-9.732 9.48437,-10 z m -100,60 c -5.28127,0.268 -9.48437,4.6525 -9.48437,10 0,5.52 4.48,10 10,10 5.52,0 10,-4.48 10,-10 0,-5.52 -4.48,-10 -10,-10 -0.1725,0 -0.34526,-0.009 -0.51563,0 z"
         id="path4848" />
    </clipPath>
    <clipPath
       clipPathUnits="userSpaceOnUse"
       id="clipPath4527">
      <path
         style="color:#000000;fill:none;stroke:#ffff00;stroke-width:2;stroke-miterlimit:4;stroke-dasharray:none;marker:none;visibility:visible;display:inline;overflow:visible;enable-background:accumulate"
         d="m 390,412 -360,0 0,-359.999997 120,0 L 150,172 l 120,0 0,120 120,0 z"
         id="path4529"
         inkscape:connector-curvature="0" />
    </clipPath>
    <linearGradient
       inkscape:collect="always"
       xlink:href="#linearGradient4531"
       id="linearGradient4537"
       x1="31.411829"
       y1="76.507835"
       x2="357.57217"
       y2="202.50797"
       gradientUnits="userSpaceOnUse" />
    <linearGradient
       inkscape:collect="always"
       xlink:href="#linearGradient4541"
       id="linearGradient4547"
       x1="389.2522"
       y1="406.98816"
       x2="48.691849"
       y2="197.46797"
       gradientUnits="userSpaceOnUse" />
    <linearGradient
       inkscape:collect="always"
       xlink:href="#linearGradient4567"
       id="linearGradient4573"
       x1="185"
       y1="3.0000019"
       x2="239"
       y2="295"
       gradientUnits="userSpaceOnUse" />
    <clipPath
       clipPathUnits="userSpaceOnUse"
       id="clipPath4577">
      <path
         style="color:#000000;fill:#ffffff;fill-opacity:1;fill-rule:evenodd;stroke:none;stroke-width:2;marker:none;visibility:visible;display:inline;overflow:visible;enable-background:accumulate"
         d="M 8,279 C 182.65984,298.55772 401.55419,225.99488 491,148 L 461,-31 -49,-10 z"
         id="path4579"
         inkscape:connector-curvature="0"
         sodipodi:nodetypes="ccccc" />
    </clipPath>
    <radialGradient
       inkscape:collect="always"
       xlink:href="#linearGradient4585"
       id="radialGradient4591"
       cx="290"
       cy="452"
       fx="337.57812"
       fy="615.33331"
       r="210"
       gradientTransform="matrix(1,0,0,0.14285714,0,387.42857)"
       gradientUnits="userSpaceOnUse" />
    <linearGradient
       inkscape:collect="always"
       xlink:href="#linearGradient4567"
       id="linearGradient4693"
       gradientUnits="userSpaceOnUse"
       x1="185"
       y1="3.0000019"
       x2="239"
       y2="295" />
    <linearGradient
       inkscape:collect="always"
       xlink:href="#linearGradient4567"
       id="linearGradient4719"
       gradientUnits="userSpaceOnUse"
       x1="185"
       y1="3.0000019"
       x2="239"
       y2="295" />
    <radialGradient
       inkscape:collect="always"
       xlink:href="#linearGradient4585"
       id="radialGradient4739"
       gradientUnits="userSpaceOnUse"
       gradientTransform="matrix(1,0,0,0.14285714,0,387.42857)"
       cx="290"
       cy="452"
       fx="337.57812"
       fy="615.33331"
       r="210" />
    <linearGradient
       inkscape:collect="always"
       xlink:href="#linearGradient4541"
       id="linearGradient4741"
       gradientUnits="userSpaceOnUse"
       x1="389.2522"
       y1="406.98816"
       x2="48.691849"
       y2="197.46797" />
    <linearGradient
       inkscape:collect="always"
       xlink:href="#linearGradient4531"
       id="linearGradient4743"
       gradientUnits="userSpaceOnUse"
       x1="31.411829"
       y1="76.507835"
       x2="357.57217"
       y2="202.50797" />
    <linearGradient
       inkscape:collect="always"
       xlink:href="#linearGradient4567"
       id="linearGradient4745"
       gradientUnits="userSpaceOnUse"
       x1="185"
       y1="3.0000019"
       x2="239"
       y2="295" />
    <radialGradient
       inkscape:collect="always"
       xlink:href="#linearGradient4585"
       id="radialGradient4765"
       gradientUnits="userSpaceOnUse"
       gradientTransform="matrix(1,0,0,0.14285714,0,387.42857)"
       cx="290"
       cy="452"
       fx="337.57812"
       fy="615.33331"
       r="210" />
    <linearGradient
       inkscape:collect="always"
       xlink:href="#linearGradient4541"
       id="linearGradient4767"
       gradientUnits="userSpaceOnUse"
       x1="389.2522"
       y1="406.98816"
       x2="48.691849"
       y2="197.46797" />
    <linearGradient
       inkscape:collect="always"
       xlink:href="#linearGradient4531"
       id="linearGradient4769"
       gradientUnits="userSpaceOnUse"
       x1="31.411829"
       y1="76.507835"
       x2="357.57217"
       y2="202.50797" />
    <linearGradient
       inkscape:collect="always"
       xlink:href="#linearGradient4567"
       id="linearGradient4771"
       gradientUnits="userSpaceOnUse"
       x1="185"
       y1="3.0000019"
       x2="239"
       y2="295" />
    <radialGradient
       inkscape:collect="always"
       xlink:href="#linearGradient4585"
       id="radialGradient4791"
       gradientUnits="userSpaceOnUse"
       gradientTransform="matrix(1,0,0,0.14285714,0,387.42857)"
       cx="290"
       cy="452"
       fx="337.57812"
       fy="615.33331"
       r="210" />
    <linearGradient
       inkscape:collect="always"
       xlink:href="#linearGradient4541"
       id="linearGradient4793"
       gradientUnits="userSpaceOnUse"
       x1="389.2522"
       y1="406.98816"
       x2="48.691849"
       y2="197.46797" />
    <linearGradient
       inkscape:collect="always"
       xlink:href="#linearGradient4531"
       id="linearGradient4795"
       gradientUnits="userSpaceOnUse"
       x1="31.411829"
       y1="76.507835"
       x2="357.57217"
       y2="202.50797" />
    <linearGradient
       inkscape:collect="always"
       xlink:href="#linearGradient4567"
       id="linearGradient4797"
       gradientUnits="userSpaceOnUse"
       x1="185"
       y1="3.0000019"
       x2="239"
       y2="295" />
    <linearGradient
       inkscape:collect="always"
       xlink:href="#linearGradient4831"
       id="linearGradient4825"
       gradientUnits="userSpaceOnUse"
       x1="256.77206"
       y1="337.8681"
       x2="48.691849"
       y2="197.46797" />
    <linearGradient
       inkscape:collect="always"
       xlink:href="#linearGradient4567"
       id="linearGradient4827"
       gradientUnits="userSpaceOnUse"
       x1="185"
       y1="3.0000019"
       x2="239"
       y2="295" />
    <linearGradient
       inkscape:collect="always"
       xlink:href="#linearGradient4531"
       id="linearGradient4829"
       gradientUnits="userSpaceOnUse"
       x1="172.53197"
       y1="134.10789"
       x2="284.13211"
       y2="172.26793" />
  </defs>
  <sodipodi:namedview
     id="base"
     pagecolor="#808080"
     bordercolor="#666666"
     borderopacity="1.0"
     inkscape:pageopacity="0"
     inkscape:pageshadow="2"
     inkscape:zoom="1"
     inkscape:cx="551.81451"
     inkscape:cy="106.78436"
     inkscape:document-units="px"
     inkscape:current-layer="layer1"
     showgrid="false"
     inkscape:window-width="1440"
     inkscape:window-height="852"
     inkscape:window-x="0"
     inkscape:window-y="0"
     inkscape:window-maximized="1"
     fit-margin-top="0"
     fit-margin-left="0"
     fit-margin-right="0"
     fit-margin-bottom="0">
    <inkscape:grid
       type="xygrid"
       id="grid2985"
       empspacing="5"
       visible="true"
       enabled="true"
       snapvisiblegridlinesonly="true" />
    <inkscape:grid
       type="axonomgrid"
       id="grid4850"
       empspacing="5"
       visible="true"
       enabled="false"
       snapvisiblegridlinesonly="true" />
  </sodipodi:namedview>
  <metadata
     id="metadata7">
    <rdf:RDF>
      <cc:Work
         rdf:about="">
        <dc:format>image/svg+xml</dc:format>
        <dc:type
           rdf:resource="http://purl.org/dc/dcmitype/StillImage" />
        <dc:title></dc:title>
      </cc:Work>
    </rdf:RDF>
  </metadata>
  <g
     inkscape:label="bg masks"
     inkscape:groupmode="layer"
     id="layer1"
     transform="translate(0,-540.36218)"
     style="display:inline;opacity:1">
    <rect
       style="color:#000000;fill:none;stroke:#00ff00;stroke-width:2;marker:none;visibility:visible;display:inline;overflow:visible;enable-background:accumulate"
       id="BQTDraw_app_512p"
       width="512"
       height="512"
       x="0"
       y="540.36218"
       inkscape:label="#rect2987" />
    <rect
       y="796.36218"
       x="512"
       height="256"
       width="256"
       id="BQTDraw_app_256p"
       style="color:#000000;fill:none;stroke:#00ff00;stroke-width:2;marker:none;visibility:visible;display:inline;overflow:visible;enable-background:accumulate"
       inkscape:label="#rect2989" />
    <rect
       style="color:#000000;fill:none;stroke:#00ff00;stroke-width:2;marker:none;visibility:visible;display:inline;overflow:visible;enable-background:accumulate"
       id="BQTDraw_app_128p"
       width="128"
       height="128"
       x="768"
       y="924.36218"
       inkscape:label="#rect2991" />
    <rect
       y="1078.3622"
       x="896"
       height="64"
       width="64"
       id="rect2993"
       style="color:#000000;fill:none;stroke:#00ff00;stroke-width:2;marker:none;visibility:visible;display:inline;overflow:visible;enable-background:accumulate" />
    <rect
       style="color:#000000;fill:none;stroke:#00ff00;stroke-width:2;marker:none;visibility:visible;display:inline;overflow:visible;enable-background:accumulate"
       id="BQTDraw_app_32p"
       width="32"
       height="32"
       x="960"
       y="1020.3622"
       inkscape:label="#rect2995" />
    <rect
       y="1036.3622"
       x="992"
       height="16"
       width="16"
       id="BQTDraw_app_16p"
       style="color:#000000;fill:none;stroke:#00ff00;stroke-width:2;marker:none;visibility:visible;display:inline;overflow:visible;enable-background:accumulate"
       inkscape:label="#rect3666" />
  </g>
  <g
     inkscape:groupmode="layer"
     id="layer3"
     inkscape:label="work"
     style="display:inline"
     transform="translate(0,-2.6171874e-6)"
     sodipodi:insensitive="true">
    <g
       id="g4627"
       inkscape:transform-center-x="-256"
       inkscape:transform-center-y="-256">
      <rect
         inkscape:label="#rect2987"
         y="2.6171874e-06"
         x="0"
         height="512"
         width="512"
         id="CEE_app_512p-9"
         style="color:#000000;fill:none;stroke:none;stroke-width:2;marker:none;visibility:visible;display:inline;overflow:visible;enable-background:accumulate" />
      <g
         id="g4619">
        <path
           sodipodi:type="arc"
           style="color:#000000;fill:url(#radialGradient4591);fill-opacity:1;fill-rule:evenodd;stroke:none;stroke-width:2;marker:none;visibility:visible;display:inline;overflow:visible;enable-background:accumulate"
           id="path4581"
           sodipodi:cx="290"
           sodipodi:cy="452"
           sodipodi:rx="210"
           sodipodi:ry="30"
           d="m 500,452 a 210,30 0 1 1 -420,0 210,30 0 1 1 420,0 z"
           transform="matrix(1.2190476,0,0,1.5,-97.523808,-211)" />
        <g
           id="g4523"
           clip-path="url(#clipPath4527)"
           inkscape:transform-center-x="-166.6665"
           transform="matrix(0.69444375,0.69444375,-0.69444375,0.69444375,327.31664,-50.944135)">
          <image
             transform="matrix(-0.70710678,-0.70710678,0.70710678,-0.70710678,0,0)"
             width="638.04932"
             height="368.37378"
             xlink:href="file:///home/jadematrix/Developer/BQTDraw/workspace/hs-2009-25-i-xlarge_web.jpg"
             id="image3745"
             x="-673.99261"
             y="-273.2822" />
          <path
             inkscape:connector-curvature="0"
             id="path4539"
             d="m 390,412 -360,0 0,-359.999997 120,0 L 150,172 l 120,0 0,120 120,0 z"
             style="color:#000000;fill:none;stroke:url(#linearGradient4547);stroke-width:10.18234825;marker:none;visibility:visible;display:inline;overflow:visible;enable-background:accumulate" />
          <path
             style="color:#000000;fill:none;stroke:url(#linearGradient4537);stroke-width:10.18234825;marker:none;visibility:visible;display:inline;overflow:visible;enable-background:accumulate"
             d="m 390,412 -360,0 0,-359.999997 120,0 L 150,172 l 120,0 0,120 120,0 z"
             id="path3379"
             inkscape:connector-curvature="0" />
          <rect
             style="color:#000000;fill:url(#linearGradient4573);fill-opacity:1;fill-rule:evenodd;stroke:none;stroke-width:2;marker:none;visibility:visible;display:inline;overflow:visible;enable-background:accumulate"
             id="rect4549"
             width="424"
             height="539"
             x="13"
             y="-15"
             transform="matrix(0.72000072,-0.72000072,0.72000072,0.72000072,-198.9884,243.54799)"
             clip-path="url(#clipPath4577)" />
        </g>
      </g>
    </g>
    <g
       inkscape:transform-center-y="-128"
       inkscape:transform-center-x="-128"
       id="g4721"
       transform="matrix(0.5,0,0,0.5,512,256)">
      <rect
         style="color:#000000;fill:none;stroke:none;stroke-width:2;marker:none;visibility:visible;display:inline;overflow:visible;enable-background:accumulate"
         id="rect4723"
         width="512"
         height="512"
         x="0"
         y="2.6171874e-06"
         inkscape:label="#rect2987" />
      <g
         id="g4725">
        <path
           transform="matrix(1.2190476,0,0,1.5,-97.523808,-211)"
           d="m 500,452 a 210,30 0 1 1 -420,0 210,30 0 1 1 420,0 z"
           sodipodi:ry="30"
           sodipodi:rx="210"
           sodipodi:cy="452"
           sodipodi:cx="290"
           id="path4727"
           style="color:#000000;fill:url(#radialGradient4739);fill-opacity:1;fill-rule:evenodd;stroke:none;stroke-width:2;marker:none;visibility:visible;display:inline;overflow:visible;enable-background:accumulate"
           sodipodi:type="arc" />
        <g
           transform="matrix(0.69444375,0.69444375,-0.69444375,0.69444375,327.31664,-50.944135)"
           inkscape:transform-center-x="-166.6665"
           clip-path="url(#clipPath4527)"
           id="g4729">
          <image
             y="-273.2822"
             x="-673.99261"
             id="image4731"
             xlink:href="file:///home/jadematrix/Developer/BQTDraw/workspace/hs-2009-25-i-xlarge_web.jpg"
             height="368.37378"
             width="638.04932"
             transform="matrix(-0.70710678,-0.70710678,0.70710678,-0.70710678,0,0)" />
          <path
             style="color:#000000;fill:none;stroke:url(#linearGradient4741);stroke-width:10.18234825;marker:none;visibility:visible;display:inline;overflow:visible;enable-background:accumulate"
             d="m 390,412 -360,0 0,-359.999997 120,0 L 150,172 l 120,0 0,120 120,0 z"
             id="path4733"
             inkscape:connector-curvature="0" />
          <path
             inkscape:connector-curvature="0"
             id="path4735"
             d="m 390,412 -360,0 0,-359.999997 120,0 L 150,172 l 120,0 0,120 120,0 z"
             style="color:#000000;fill:none;stroke:url(#linearGradient4743);stroke-width:10.18234825;marker:none;visibility:visible;display:inline;overflow:visible;enable-background:accumulate" />
          <rect
             clip-path="url(#clipPath4577)"
             transform="matrix(0.72000072,-0.72000072,0.72000072,0.72000072,-198.9884,243.54799)"
             y="-15"
             x="13"
             height="539"
             width="424"
             id="rect4737"
             style="color:#000000;fill:url(#linearGradient4745);fill-opacity:1;fill-rule:evenodd;stroke:none;stroke-width:2;marker:none;visibility:visible;display:inline;overflow:visible;enable-background:accumulate" />
        </g>
      </g>
    </g>
    <g
       transform="matrix(0.25,0,0,0.25,768,384)"
       id="g4747"
       inkscape:transform-center-x="-64"
       inkscape:transform-center-y="-64.000001">
      <rect
         inkscape:label="#rect2987"
         y="2.6171874e-06"
         x="0"
         height="512"
         width="512"
         id="rect4749"
         style="color:#000000;fill:none;stroke:none;stroke-width:2;marker:none;visibility:visible;display:inline;overflow:visible;enable-background:accumulate" />
      <g
         id="g4751">
        <path
           sodipodi:type="arc"
           style="color:#000000;fill:url(#radialGradient4765);fill-opacity:1;fill-rule:evenodd;stroke:none;stroke-width:2;marker:none;visibility:visible;display:inline;overflow:visible;enable-background:accumulate"
           id="path4753"
           sodipodi:cx="290"
           sodipodi:cy="452"
           sodipodi:rx="210"
           sodipodi:ry="30"
           d="m 500,452 a 210,30 0 1 1 -420,0 210,30 0 1 1 420,0 z"
           transform="matrix(1.2190476,0,0,1.5,-97.523808,-211)" />
        <g
           id="g4755"
           clip-path="url(#clipPath4527)"
           inkscape:transform-center-x="-166.6665"
           transform="matrix(0.69444375,0.69444375,-0.69444375,0.69444375,327.31664,-50.944135)">
          <image
             transform="matrix(-0.70710678,-0.70710678,0.70710678,-0.70710678,0,0)"
             width="638.04932"
             height="368.37378"
             xlink:href="file:///home/jadematrix/Developer/BQTDraw/workspace/hs-2009-25-i-xlarge_web.jpg"
             id="image4757"
             x="-673.99261"
             y="-273.2822" />
          <path
             inkscape:connector-curvature="0"
             id="path4759"
             d="m 390,412 -360,0 0,-359.999997 120,0 L 150,172 l 120,0 0,120 120,0 z"
             style="color:#000000;fill:none;stroke:url(#linearGradient4767);stroke-width:10.18234825;marker:none;visibility:visible;display:inline;overflow:visible;enable-background:accumulate" />
          <path
             style="color:#000000;fill:none;stroke:url(#linearGradient4769);stroke-width:10.18234825;marker:none;visibility:visible;display:inline;overflow:visible;enable-background:accumulate"
             d="m 390,412 -360,0 0,-359.999997 120,0 L 150,172 l 120,0 0,120 120,0 z"
             id="path4761"
             inkscape:connector-curvature="0" />
          <rect
             style="color:#000000;fill:url(#linearGradient4771);fill-opacity:1;fill-rule:evenodd;stroke:none;stroke-width:2;marker:none;visibility:visible;display:inline;overflow:visible;enable-background:accumulate"
             id="rect4763"
             width="424"
             height="539"
             x="13"
             y="-15"
             transform="matrix(0.72000072,-0.72000072,0.72000072,0.72000072,-198.9884,243.54799)"
             clip-path="url(#clipPath4577)" />
        </g>
      </g>
    </g>
    <g
       inkscape:transform-center-y="-16.000001"
       inkscape:transform-center-x="-16"
       id="g4773"
       transform="matrix(0.0625,0,0,0.0625,960,480)">
      <rect
         style="color:#000000;fill:none;stroke:none;stroke-width:2;marker:none;visibility:visible;display:inline;overflow:visible;enable-background:accumulate"
         id="rect4775"
         width="512"
         height="512"
         x="0"
         y="2.6171874e-06"
         inkscape:label="#rect2987" />
      <g
         id="g4777">
        <path
           transform="matrix(1.2190476,0,0,1.5,-97.523808,-211)"
           d="m 500,452 a 210,30 0 1 1 -420,0 210,30 0 1 1 420,0 z"
           sodipodi:ry="30"
           sodipodi:rx="210"
           sodipodi:cy="452"
           sodipodi:cx="290"
           id="path4779"
           style="color:#000000;fill:url(#radialGradient4791);fill-opacity:1;fill-rule:evenodd;stroke:none;stroke-width:2;marker:none;visibility:visible;display:inline;overflow:visible;enable-background:accumulate"
           sodipodi:type="arc" />
        <g
           transform="matrix(0.69444375,0.69444375,-0.69444375,0.69444375,327.31664,-50.944135)"
           inkscape:transform-center-x="-166.6665"
           clip-path="url(#clipPath4527)"
           id="g4781">
          <image
             y="-273.2822"
             x="-673.99261"
             id="image4783"
             xlink:href="file:///home/jadematrix/Developer/BQTDraw/workspace/hs-2009-25-i-xlarge_web.jpg"
             height="368.37378"
             width="638.04932"
             transform="matrix(-0.70710678,-0.70710678,0.70710678,-0.70710678,0,0)" />
          <path
             style="color:#000000;fill:none;stroke:url(#linearGradient4793);stroke-width:32.58351135;stroke-miterlimit:4;stroke-dasharray:none;marker:none;visibility:visible;display:inline;overflow:visible;enable-background:accumulate"
             d="m 390,412 -360,0 0,-359.999997 120,0 L 150,172 l 120,0 0,120 120,0 z"
             id="path4785"
             inkscape:connector-curvature="0" />
          <rect
             clip-path="url(#clipPath4577)"
             transform="matrix(0.72000072,-0.72000072,0.72000072,0.72000072,-198.9884,243.54799)"
             y="-15"
             x="13"
             height="539"
             width="424"
             id="rect4789"
             style="color:#000000;fill:url(#linearGradient4797);fill-opacity:1;fill-rule:evenodd;stroke:none;stroke-width:2;marker:none;visibility:visible;display:inline;overflow:visible;enable-background:accumulate" />
          <path
             inkscape:connector-curvature="0"
             id="path4787"
             d="m 390,412 -360,0 0,-359.999997 120,0 L 150,172 l 120,0 0,120 120,0 z"
             style="color:#000000;fill:none;stroke:url(#linearGradient4795);stroke-width:32.58351135;stroke-miterlimit:4;stroke-dasharray:none;marker:none;visibility:visible;display:inline;overflow:visible;enable-background:accumulate" />
        </g>
      </g>
    </g>
    <g
       transform="matrix(0.03125,0,0,0.03125,992,496)"
       id="g4805"
       inkscape:transform-center-x="-8"
       inkscape:transform-center-y="-8.0000006">
      <rect
         inkscape:label="#rect2987"
         y="2.6171874e-06"
         x="0"
         height="512"
         width="512"
         id="rect4807"
         style="color:#000000;fill:none;stroke:none;stroke-width:2;marker:none;visibility:visible;display:inline;overflow:visible;enable-background:accumulate" />
      <g
         id="g4809">
        <g
           id="g4813"
           clip-path="url(#clipPath4527)"
           inkscape:transform-center-x="-166.6665"
           transform="matrix(0.69444375,0.69444375,-0.69444375,0.69444375,327.31664,-50.944135)">
          <image
             transform="matrix(-0.70710678,-0.70710678,0.70710678,-0.70710678,0,0)"
             width="638.04932"
             height="368.37378"
             xlink:href="file:///home/jadematrix/Developer/BQTDraw/workspace/hs-2009-25-i-xlarge_web.jpg"
             id="image4815"
             x="-673.99261"
             y="-273.2822" />
          <path
             inkscape:connector-curvature="0"
             id="path4817"
             d="m 390,412 -360,0 0,-360 120,0 0,120 120,0 0,120 120,0 z"
             style="color:#000000;fill:none;stroke:url(#linearGradient4825);stroke-width:65.16702271;stroke-miterlimit:4;stroke-dasharray:none;marker:none;visibility:visible;display:inline;overflow:visible;enable-background:accumulate" />
          <path
             style="color:#000000;fill:none;stroke:url(#linearGradient4829);stroke-width:65.16702271;stroke-miterlimit:4;stroke-dasharray:none;marker:none;visibility:visible;display:inline;overflow:visible;enable-background:accumulate"
             d="m 390,412 -360,0 0,-359.999997 120,0 L 150,172 l 120,0 0,120 120,0 z"
             id="path4821"
             inkscape:connector-curvature="0" />
        </g>
      </g>
    </g>
  </g>
</svg>
