<?xml version="1.0" encoding="UTF-8" standalone="no"?>
<!-- Created with Inkscape (http://www.inkscape.org/) -->

<svg
   xmlns:dc="http://purl.org/dc/elements/1.1/"
   xmlns:cc="http://creativecommons.org/ns#"
   xmlns:rdf="http://www.w3.org/1999/02/22-rdf-syntax-ns#"
   xmlns:svg="http://www.w3.org/2000/svg"
   xmlns="http://www.w3.org/2000/svg"
   xmlns:sodipodi="http://sodipodi.sourceforge.net/DTD/sodipodi-0.dtd"
   xmlns:inkscape="http://www.inkscape.org/namespaces/inkscape"
   width="744.09448819"
   height="1052.3622047"
   id="svg4006"
   version="1.1"
   inkscape:version="0.48.4 r9939"
   sodipodi:docname="halftone bleed.svg">
  <sodipodi:namedview
     id="base"
     pagecolor="#ffffff"
     bordercolor="#666666"
     borderopacity="1.0"
     inkscape:pageopacity="0.0"
     inkscape:pageshadow="2"
     inkscape:zoom="4"
     inkscape:cx="20.788772"
     inkscape:cy="-93.598096"
     inkscape:document-units="px"
     inkscape:current-layer="layer1"
     showgrid="true"
     inkscape:snap-bbox="true"
     inkscape:window-width="1920"
     inkscape:window-height="1056"
     inkscape:window-x="1280"
     inkscape:window-y="24"
     inkscape:window-maximized="1">
    <inkscape:grid
       type="xygrid"
       id="grid4014" />
  </sodipodi:namedview>
  <defs
     id="defs4008" />
  <metadata
     id="metadata4011">
    <rdf:RDF>
      <cc:Work
         rdf:about="">
        <dc:format>image/svg+xml</dc:format>
        <dc:type
           rdf:resource="http://purl.org/dc/dcmitype/StillImage" />
        <dc:title></dc:title>
      </cc:Work>
    </rdf:RDF>
  </metadata>
  <g
     inkscape:label="Layer 1"
     inkscape:groupmode="layer"
     id="layer1">
    <path
       style="color:#000000;fill:none;fill-opacity:1;fill-rule:nonzero;stroke:#000000;stroke-width:2;stroke-linecap:butt;stroke-linejoin:miter;stroke-miterlimit:4;stroke-dashoffset:0;stroke-opacity:1;marker:none;visibility:visible;display:inline;overflow:visible;enable-background:accumulate"
       d="m 110,332.36218 510,0 0,510 -510,0 z"
       id="rect4016" />
    <path
       sodipodi:nodetypes="ccccc"
       inkscape:connector-curvature="0"
       id="path4530"
       d="m 5.31223,407.04995 c 99.58369,99.58369 99.58369,261.04077 0,360.62446 -99.58369,99.58369 -261.04077,99.58369 -360.62446,0 -99.58369,-99.58369 -99.58369,-261.04077 0,-360.62446 99.58369,-99.58369 261.04077,-99.58369 360.62446,0 z"
       style="color:#000000;fill:#808080;fill-opacity:1;fill-rule:nonzero;stroke:#000000;stroke-width:2;stroke-linecap:butt;stroke-linejoin:miter;stroke-miterlimit:4;stroke-opacity:1;stroke-dashoffset:0;marker:none;visibility:visible;display:inline;overflow:visible;enable-background:accumulate" />
    <path
       sodipodi:nodetypes="ccccc"
       inkscape:connector-curvature="0"
       id="path6138"
       d="m 289.78171,513.36393 c 53.30479,-41.5152 102.65004,-40.6215 149.12406,0 40.65461,49.13931 48.0686,98.74359 0,149.12391 -48.81944,37.89895 -98.44146,40.98596 -149.12406,0 -41.63853,-52.13938 -43.47827,-101.95482 0,-149.12391 z"
       style="color:#000000;fill:none;stroke:#000000;stroke-width:1.99999964;stroke-linecap:butt;stroke-linejoin:miter;stroke-miterlimit:4;stroke-opacity:1;stroke-dashoffset:0;marker:none;visibility:visible;display:inline;overflow:visible;enable-background:accumulate" />
    <g
       id="g7982"
       transform="translate(550,0)">
      <path
         id="path7984"
         style="color:#000000;fill:none;stroke:#000000;stroke-width:1.99999964;stroke-linecap:butt;stroke-linejoin:miter;stroke-miterlimit:4;stroke-opacity:1;stroke-dashoffset:0;marker:none;visibility:visible;display:inline;overflow:visible;enable-background:accumulate"
         d="m 289.78171,513.36393 c 53.30479,-41.5152 102.65004,-40.6215 149.12406,0 0.12593,0.15221 0.25154,0.30443 0.37683,0.45665 40.08506,48.70068 47.45645,97.85896 0.46633,147.77759 -0.27914,0.29653 -0.56019,0.59309 -0.84316,0.88967 -48.81944,37.89895 -98.44146,40.98596 -149.12406,0 -0.10229,-0.12809 -0.20434,-0.25616 -0.30616,-0.38422 -41.34114,-51.9999 -43.0653,-101.68648 0.30616,-148.73969"
         inkscape:connector-curvature="0" />
      <path
         id="path7986"
         style="color:#000000;fill:none;stroke:#000000;stroke-width:1.99999964;stroke-linecap:butt;stroke-linejoin:miter;stroke-miterlimit:4;stroke-opacity:1;stroke-dashoffset:0;marker:none;visibility:visible;display:inline;overflow:visible;enable-background:accumulate"
         d="m 281.22068,504.7448 c 50.76646,-39.53829 120.37938,-38.68714 166.22166,0 0.17722,0.14496 0.32653,0.28993 0.44585,0.4349 38.17625,46.3816 45.19662,117.48472 0.44412,165.02628 -0.26584,0.28241 -0.59561,0.56485 -0.98303,0.8473 -48.63457,36.09424 -116.4151,39.03425 -166.05649,0 -0.14498,-0.12198 -0.26673,-0.24396 -0.36369,-0.36592 -39.37251,-49.52372 -41.01457,-121.12998 0.29158,-165.94256"
         inkscape:connector-curvature="0" />
      <path
         id="path7988"
         style="color:#000000;fill:none;stroke:#000000;stroke-width:1.99999964;stroke-linecap:butt;stroke-linejoin:miter;stroke-miterlimit:4;stroke-opacity:1;stroke-dashoffset:0;marker:none;visibility:visible;display:inline;overflow:visible;enable-background:accumulate"
         d="m 272.65964,496.12567 c 48.22815,-37.56137 138.10872,-36.75279 183.31928,0 0.2285,0.13771 0.4015,0.27543 0.51486,0.41315 36.26744,44.06252 42.93679,137.11049 0.42191,182.27497 -0.25254,0.26829 -0.63103,0.5366 -1.12289,0.80494 -48.4497,34.28953 -134.38875,37.08253 -182.98893,0 -0.18766,-0.11589 -0.32911,-0.23177 -0.42123,-0.34763 -37.40388,-47.04753 -38.96384,-140.57348 0.277,-183.14543"
         inkscape:connector-curvature="0" />
      <path
         id="path7990"
         style="color:#000000;fill:none;stroke:#000000;stroke-width:1.99999964;stroke-linecap:butt;stroke-linejoin:miter;stroke-miterlimit:4;stroke-opacity:1;stroke-dashoffset:0;marker:none;visibility:visible;display:inline;overflow:visible;enable-background:accumulate"
         d="m 264.09861,487.50654 c 45.68982,-35.58446 155.83806,-34.81843 200.41688,0 0.27979,0.13046 0.47649,0.26093 0.58388,0.39141 34.35863,41.74344 40.67696,156.73625 0.39971,199.52365 -0.23926,0.25417 -0.66646,0.50836 -1.26277,0.76257 -48.26483,32.48482 -152.36238,35.13083 -199.92137,0 -0.23034,-0.10979 -0.39148,-0.21956 -0.47875,-0.32933 -35.43526,-44.57134 -36.91312,-160.01698 0.26242,-200.3483"
         inkscape:connector-curvature="0" />
      <path
         id="path7992"
         style="color:#000000;fill:none;stroke:#000000;stroke-width:1.99999964;stroke-linecap:butt;stroke-linejoin:miter;stroke-miterlimit:4;stroke-opacity:1;stroke-dashoffset:0;marker:none;visibility:visible;display:inline;overflow:visible;enable-background:accumulate"
         d="m 255.53757,478.88741 c 43.1515,-33.60755 173.56741,-32.88408 217.5145,0 0.33107,0.12321 0.55147,0.24644 0.65289,0.36966 32.44982,39.42436 38.41713,176.36202 0.3775,216.77234 -0.22596,0.24005 -0.70188,0.48012 -1.40264,0.72021 -48.07996,30.6801 -170.33602,33.17911 -216.8538,0 -0.27302,-0.10369 -0.45387,-0.20737 -0.53629,-0.31104 -33.46663,-42.09516 -34.86238,-179.46048 0.24784,-217.55117"
         inkscape:connector-curvature="0" />
      <path
         id="path7994"
         style="color:#000000;fill:none;stroke:#000000;stroke-width:1.99999964;stroke-linecap:butt;stroke-linejoin:miter;stroke-miterlimit:4;stroke-opacity:1;stroke-dashoffset:0;marker:none;visibility:visible;display:inline;overflow:visible;enable-background:accumulate"
         d="m 246.97654,470.26828 c 40.61317,-31.63063 191.29675,-30.94972 234.6121,0 0.38236,0.11597 0.62645,0.23194 0.72191,0.34792 30.541,37.10528 36.1573,195.98777 0.3553,234.02102 -0.21267,0.22593 -0.73731,0.45188 -1.54251,0.67784 -47.89509,28.87539 -188.30967,31.2274 -233.78624,0 -0.31571,-0.0976 -0.51625,-0.19517 -0.59382,-0.29274 -31.49801,-39.61897 -32.81166,-198.90398 0.23326,-234.75404"
         inkscape:connector-curvature="0" />
      <path
         id="path7996"
         style="color:#000000;fill:none;stroke:#000000;stroke-width:1.99999964;stroke-linecap:butt;stroke-linejoin:miter;stroke-miterlimit:4;stroke-opacity:1;stroke-dashoffset:0;marker:none;visibility:visible;display:inline;overflow:visible;enable-background:accumulate"
         d="m 238.41551,461.64914 c 38.07485,-29.65371 209.02608,-29.01535 251.70971,0 0.43364,0.10873 0.70143,0.21745 0.79092,0.32618 28.63219,34.7862 33.89747,215.61354 0.33309,251.26971 -0.19938,0.21181 -0.77273,0.42363 -1.68238,0.63548 -47.71022,27.07068 -206.28331,29.27568 -250.71867,0 -0.35839,-0.0915 -0.57863,-0.18298 -0.65136,-0.27445 -29.52938,-37.14278 -30.76093,-218.34748 0.21869,-251.95692"
         inkscape:connector-curvature="0" />
      <path
         id="path7998"
         style="color:#000000;fill:none;stroke:#000000;stroke-width:1.99999964;stroke-linecap:butt;stroke-linejoin:miter;stroke-miterlimit:4;stroke-opacity:1;stroke-dashoffset:0;marker:none;visibility:visible;display:inline;overflow:visible;enable-background:accumulate"
         d="m 229.85447,453.03001 c 35.53653,-27.6768 226.75543,-27.081 268.80732,0 0.48493,0.10148 0.77642,0.20295 0.85994,0.30443 26.72338,32.46712 31.63764,235.23931 0.31089,268.5184 -0.18609,0.19769 -0.80816,0.39539 -1.82226,0.59311 -47.52535,25.26597 -224.25694,27.32398 -267.65111,0 -0.40107,-0.0854 -0.64101,-0.17077 -0.70888,-0.25615 -27.56076,-34.6666 -28.7102,-237.79098 0.2041,-269.15979"
         inkscape:connector-curvature="0" />
      <path
         id="path8000"
         style="color:#000000;fill:none;stroke:#000000;stroke-width:1.99999964;stroke-linecap:butt;stroke-linejoin:miter;stroke-miterlimit:4;stroke-opacity:1;stroke-dashoffset:0;marker:none;visibility:visible;display:inline;overflow:visible;enable-background:accumulate"
         d="m 221.29344,444.41088 c 32.9982,-25.69988 244.48477,-25.14664 285.90493,0 0.53621,0.0942 0.85139,0.18846 0.92895,0.28269 24.81457,30.14804 29.37781,254.86507 0.28868,285.76708 -0.17279,0.18357 -0.84358,0.36715 -1.96212,0.55075 -47.34049,23.46125 -242.23059,25.37226 -284.58355,0 -0.44375,-0.0793 -0.70339,-0.15858 -0.76642,-0.23786 -25.59213,-32.19041 -26.65947,-257.23448 0.18953,-286.36266"
         inkscape:connector-curvature="0" />
      <path
         id="path8002"
         style="color:#000000;fill:none;stroke:#000000;stroke-width:1.99999964;stroke-linecap:butt;stroke-linejoin:miter;stroke-miterlimit:4;stroke-opacity:1;stroke-dashoffset:0;marker:none;visibility:visible;display:inline;overflow:visible;enable-background:accumulate"
         d="m 212.73241,435.79175 c 30.45988,-23.72297 262.21411,-23.21228 303.00253,0 0.5875,0.087 0.92638,0.17396 0.99797,0.26094 22.90575,27.82896 27.11798,274.49084 0.26648,303.01577 -0.15951,0.16945 -0.87901,0.33891 -2.102,0.50838 -47.15561,21.65655 -260.20423,23.42055 -301.51598,0 -0.48644,-0.0732 -0.76577,-0.14638 -0.82395,-0.21955 -23.62351,-29.71423 -24.60874,-276.67799 0.17495,-303.56554"
         inkscape:connector-curvature="0" />
      <path
         id="path8004"
         style="color:#000000;fill:none;stroke:#000000;stroke-width:1.99999964;stroke-linecap:butt;stroke-linejoin:miter;stroke-miterlimit:4;stroke-opacity:1;stroke-dashoffset:0;marker:none;visibility:visible;display:inline;overflow:visible;enable-background:accumulate"
         d="m 204.17137,427.17262 c 27.92156,-21.74606 279.94345,-21.27793 320.10014,0 0.63879,0.0797 1.00137,0.15946 1.06699,0.2392 20.99694,25.50988 24.85815,294.11659 0.24427,320.26445 -0.14621,0.15533 -0.91443,0.31067 -2.24187,0.46602 -46.97074,19.85183 -278.17787,21.46883 -318.44841,0 -0.52912,-0.0671 -0.82816,-0.13418 -0.88149,-0.20126 -21.65488,-27.23805 -22.55801,-296.12149 0.16037,-320.76841"
         inkscape:connector-curvature="0" />
      <path
         id="path8006"
         style="color:#000000;fill:none;stroke:#000000;stroke-width:1.99999964;stroke-linecap:butt;stroke-linejoin:miter;stroke-miterlimit:4;stroke-opacity:1;stroke-dashoffset:0;marker:none;visibility:visible;display:inline;overflow:visible;enable-background:accumulate"
         d="m 195.61034,418.55349 c 25.38323,-19.76914 297.67279,-19.34357 337.19775,0 0.69007,0.0725 1.07634,0.14496 1.13601,0.21745 19.08812,23.1908 22.59831,313.74236 0.22206,337.51314 -0.13293,0.14121 -0.94987,0.28242 -2.38174,0.42365 -46.78588,18.04712 -296.15151,19.51713 -335.38086,0 -0.5718,-0.061 -0.89053,-0.12198 -0.93901,-0.18296 -19.68626,-24.76186 -20.50729,-315.56499 0.14579,-337.97128"
         inkscape:connector-curvature="0" />
      <path
         id="path8008"
         style="color:#000000;fill:none;stroke:#000000;stroke-width:1.99999964;stroke-linecap:butt;stroke-linejoin:miter;stroke-miterlimit:4;stroke-opacity:1;stroke-dashoffset:0;marker:none;visibility:visible;display:inline;overflow:visible;enable-background:accumulate"
         d="m 187.0493,409.93436 c 22.84491,-17.79223 315.40214,-17.40922 354.29536,0 0.74136,0.0652 1.15133,0.13047 1.20503,0.1957 17.17931,20.87172 20.33848,333.36813 0.19985,354.76183 -0.11963,0.12709 -0.98529,0.25418 -2.52161,0.38129 -46.601,16.2424 -314.12515,17.56541 -352.31329,0 -0.61448,-0.0549 -0.95291,-0.10979 -0.99655,-0.16467 -17.71763,-22.28567 -18.45655,-335.00849 0.13121,-355.17415"
         inkscape:connector-curvature="0" />
      <path
         id="path8010"
         style="color:#000000;fill:none;stroke:#000000;stroke-width:1.99999964;stroke-linecap:butt;stroke-linejoin:miter;stroke-miterlimit:4;stroke-opacity:1;stroke-dashoffset:0;marker:none;visibility:visible;display:inline;overflow:visible;enable-background:accumulate"
         d="m 178.48827,401.31523 c 20.30659,-15.81532 333.13148,-15.47486 371.39297,0 0.79264,0.058 1.22631,0.11597 1.27404,0.17396 15.2705,18.55264 18.07865,352.99389 0.17764,372.01051 -0.10633,0.11296 -1.02071,0.22594 -2.66148,0.33892 -46.41613,14.4377 -332.09879,15.6137 -369.24572,0 -0.65717,-0.0488 -1.01529,-0.0976 -1.05408,-0.14637 -15.74901,-19.80948 -16.40583,-354.45199 0.11663,-372.37702"
         inkscape:connector-curvature="0" />
      <path
         id="path8012"
         style="color:#000000;fill:none;stroke:#000000;stroke-width:1.99999964;stroke-linecap:butt;stroke-linejoin:miter;stroke-miterlimit:4;stroke-opacity:1;stroke-dashoffset:0;marker:none;visibility:visible;display:inline;overflow:visible;enable-background:accumulate"
         d="m 169.92724,392.6961 c 17.76826,-13.8384 350.86081,-13.5405 388.49057,0 0.84392,0.0507 1.30129,0.10147 1.34306,0.15221 13.36168,16.23356 15.81881,372.61966 0.15544,389.2592 -0.093,0.0988 -1.05614,0.1977 -2.80135,0.29656 -46.23127,12.63298 -350.07244,13.66198 -386.17816,0 -0.69985,-0.0427 -1.07768,-0.0854 -1.11162,-0.12808 -13.78038,-17.3333 -14.3551,-373.89549 0.10206,-389.57989"
         inkscape:connector-curvature="0" />
      <path
         id="path8014"
         style="color:#000000;fill:none;stroke:#000000;stroke-width:1.99999964;stroke-linecap:butt;stroke-linejoin:miter;stroke-miterlimit:4;stroke-opacity:1;stroke-dashoffset:0;marker:none;visibility:visible;display:inline;overflow:visible;enable-background:accumulate"
         d="m 161.3662,384.07697 c 15.22994,-11.86149 368.59016,-11.60615 405.58819,0 0.8952,0.0435 1.37627,0.087 1.41207,0.13047 11.45287,13.91448 13.55898,392.24541 0.13323,406.50788 -0.0797,0.0847 -1.09156,0.16945 -2.94122,0.25419 -46.04639,10.82827 -368.04607,11.71028 -403.1106,0 -0.74253,-0.0366 -1.14005,-0.0732 -1.16914,-0.10978 -11.81175,-14.85711 -12.30437,-393.33899 0.0875,-406.78276"
         inkscape:connector-curvature="0" />
      <path
         id="path8016"
         style="color:#000000;fill:none;stroke:#000000;stroke-width:1.99999964;stroke-linecap:butt;stroke-linejoin:miter;stroke-miterlimit:4;stroke-opacity:1;stroke-dashoffset:0;marker:none;visibility:visible;display:inline;overflow:visible;enable-background:accumulate"
         d="m 152.80517,375.45783 c 12.69162,-9.88457 386.3195,-9.67178 422.68579,0 0.94649,0.0362 1.45126,0.0725 1.48109,0.10873 9.54406,11.5954 11.29915,411.87118 0.11103,423.75657 -0.0665,0.0706 -1.12699,0.14121 -3.0811,0.21183 -45.86152,9.02356 -386.01971,9.75856 -420.04303,0 -0.78521,-0.0305 -1.20243,-0.061 -1.22668,-0.0915 -9.84312,-12.38092 -10.25364,-412.78249 0.0729,-423.98564"
         inkscape:connector-curvature="0" />
      <path
         id="path8018"
         style="color:#000000;fill:none;stroke:#000000;stroke-width:1.99999964;stroke-linecap:butt;stroke-linejoin:miter;stroke-miterlimit:4;stroke-opacity:1;stroke-dashoffset:0;marker:none;visibility:visible;display:inline;overflow:visible;enable-background:accumulate"
         d="m 144.24414,366.8387 c 10.15329,-7.90765 404.04883,-7.73742 439.78339,0 0.99778,0.029 1.52624,0.058 1.55011,0.087 7.63525,9.27632 9.03932,431.49695 0.0888,441.00526 -0.0532,0.0565 -1.16241,0.11297 -3.22096,0.16946 -45.67666,7.21885 -403.99336,7.80685 -436.97547,0 -0.8279,-0.0244 -1.26482,-0.0488 -1.28421,-0.0732 -7.8745,-9.90475 -8.20291,-432.226 0.0583,-441.18852"
         inkscape:connector-curvature="0" />
      <path
         id="path8020"
         style="color:#000000;fill:none;stroke:#000000;stroke-width:1.99999964;stroke-linecap:butt;stroke-linejoin:miter;stroke-miterlimit:4;stroke-opacity:1;stroke-dashoffset:0;marker:none;visibility:visible;display:inline;overflow:visible;enable-background:accumulate"
         d="m 135.6831,358.21957 c 7.61497,-5.93074 421.77818,-5.80307 456.88101,0 1.04906,0.0217 1.60122,0.0435 1.61912,0.0652 5.72644,6.95724 6.77949,451.12271 0.0666,458.25394 -0.0399,0.0424 -1.19784,0.0847 -3.36084,0.1271 -45.49179,5.41413 -421.967,5.85513 -453.9079,0 -0.87058,-0.0183 -1.3272,-0.0366 -1.34175,-0.0549 -5.90587,-7.42856 -6.15218,-451.6695 0.0437,-458.39139"
         inkscape:connector-curvature="0" />
      <path
         id="path8022"
         style="color:#000000;fill:none;stroke:#000000;stroke-width:1.99999964;stroke-linecap:butt;stroke-linejoin:miter;stroke-miterlimit:4;stroke-opacity:1;stroke-dashoffset:0;marker:none;visibility:visible;display:inline;overflow:visible;enable-background:accumulate"
         d="m 127.12207,349.60044 c 5.07664,-3.95383 439.50752,-3.86871 473.97861,0 1.10035,0.0145 1.67621,0.029 1.68814,0.0435 3.81762,4.63816 4.51966,470.74847 0.0444,475.50263 -0.0266,0.0282 -1.23326,0.0565 -3.5007,0.0847 -45.30692,3.60942 -439.94064,3.90343 -470.84035,0 -0.91326,-0.0122 -1.38957,-0.0244 -1.39927,-0.0366 -3.93725,-4.95237 -4.10146,-471.113 0.0292,-475.59426"
         inkscape:connector-curvature="0" />
      <path
         id="path8024"
         style="color:#000000;fill:none;stroke:#000000;stroke-width:1.99999964;stroke-linecap:butt;stroke-linejoin:miter;stroke-miterlimit:4;stroke-opacity:1;stroke-dashoffset:0;marker:none;visibility:visible;display:inline;overflow:visible;enable-background:accumulate"
         d="m 118.56103,340.98131 c 2.53833,-1.97691 457.23687,-1.93436 491.07623,0 1.15163,0.007 1.75118,0.0145 1.75715,0.0217 1.90881,2.31908 2.25983,490.37423 0.0222,492.75131 -0.0133,0.0141 -1.26869,0.0282 -3.64058,0.0424 -45.12205,1.80471 -457.91428,1.95171 -487.77278,0 -0.95594,-0.006 -1.45196,-0.0122 -1.45681,-0.0183 -1.96862,-2.47619 -2.05072,-490.5565 0.0146,-492.79713"
         inkscape:connector-curvature="0" />
      <path
         id="path8026"
         style="color:#000000;fill:none;stroke:#000000;stroke-width:1.99999964;stroke-linecap:butt;stroke-linejoin:miter;stroke-miterlimit:4;stroke-opacity:1;stroke-dashoffset:0;marker:none;visibility:visible;display:inline;overflow:visible;enable-background:accumulate"
         d="m 110,332.36218 c 0,0 474.9662,0 508.17383,0 1.20292,0 1.82617,0 1.82617,0 0,0 0,510 0,510 0,0 -1.30411,0 -3.78045,0 -44.93718,0 -475.88792,0 -504.70521,0 -0.99863,0 -1.51434,0 -1.51434,0 0,0 0,-510 0,-510"
         inkscape:connector-curvature="0" />
    </g>
    <path
       style="color:#000000;fill:none;stroke:#000000;stroke-width:2;stroke-linecap:butt;stroke-linejoin:miter;stroke-miterlimit:4;stroke-opacity:1;stroke-dasharray:none;stroke-dashoffset:0;marker:none;visibility:visible;display:inline;overflow:visible;enable-background:accumulate"
       d="m 220,1082.3622 c -28.85002,0 -60,0 -60,0 0,0 0,28.85 0,60"
       id="path8106"
       inkscape:connector-curvature="0"
       sodipodi:nodetypes="ccc" />
    <path
       sodipodi:nodetypes="cc"
       inkscape:connector-curvature="0"
       id="path8108"
       d="m 220,1127.3622 c -10,0 -15,5 -15,15"
       style="color:#000000;fill:none;stroke:#000000;stroke-width:2;stroke-linecap:butt;stroke-linejoin:miter;stroke-miterlimit:4;stroke-opacity:1;stroke-dasharray:none;stroke-dashoffset:0;marker:none;visibility:visible;display:inline;overflow:visible;enable-background:accumulate" />
    <g
       transform="translate(70,0)"
       id="g8448">
      <path
         inkscape:connector-curvature="0"
         d="m 220,1127.3622 c -5,0 -8.75,1.25 -11.25,3.75 -2.5,2.5 -3.75,6.25 -3.75,11.25"
         style="color:#000000;fill:none;stroke:#000000;stroke-width:2;stroke-linecap:butt;stroke-linejoin:miter;stroke-miterlimit:4;stroke-opacity:1;stroke-dasharray:none;stroke-dashoffset:0;marker:none;visibility:visible;display:inline;overflow:visible;enable-background:accumulate"
         id="path8450" />
      <path
         inkscape:connector-curvature="0"
         d="m 220,1123.2713 c -7.16818,0 -13.40909,1.1364 -15.68182,3.4091 -2.27273,2.2727 -3.40909,8.3045 -3.40909,15.6818"
         style="color:#000000;fill:none;stroke:#000000;stroke-width:2;stroke-linecap:butt;stroke-linejoin:miter;stroke-miterlimit:4;stroke-opacity:1;stroke-dasharray:none;stroke-dashoffset:0;marker:none;visibility:visible;display:inline;overflow:visible;enable-background:accumulate"
         id="path8452" />
      <path
         inkscape:connector-curvature="0"
         d="m 220,1119.1804 c -9.33637,0 -18.06818,1.0227 -20.11364,3.0682 -2.04545,2.0454 -3.06818,10.3591 -3.06818,20.1136"
         style="color:#000000;fill:none;stroke:#000000;stroke-width:2;stroke-linecap:butt;stroke-linejoin:miter;stroke-miterlimit:4;stroke-opacity:1;stroke-dasharray:none;stroke-dashoffset:0;marker:none;visibility:visible;display:inline;overflow:visible;enable-background:accumulate"
         id="path8454" />
      <path
         inkscape:connector-curvature="0"
         d="m 220,1115.0895 c -11.50455,0 -22.72727,0.9091 -24.54545,2.7272 -1.81819,1.8182 -2.72728,12.4137 -2.72728,24.5455"
         style="color:#000000;fill:none;stroke:#000000;stroke-width:2;stroke-linecap:butt;stroke-linejoin:miter;stroke-miterlimit:4;stroke-opacity:1;stroke-dasharray:none;stroke-dashoffset:0;marker:none;visibility:visible;display:inline;overflow:visible;enable-background:accumulate"
         id="path8456" />
      <path
         inkscape:connector-curvature="0"
         d="m 220,1110.9986 c -13.67273,0 -27.38636,0.7954 -28.97727,2.3863 -1.59091,1.5909 -2.38637,14.4682 -2.38637,28.9773"
         style="color:#000000;fill:none;stroke:#000000;stroke-width:2;stroke-linecap:butt;stroke-linejoin:miter;stroke-miterlimit:4;stroke-opacity:1;stroke-dasharray:none;stroke-dashoffset:0;marker:none;visibility:visible;display:inline;overflow:visible;enable-background:accumulate"
         id="path8458" />
      <path
         inkscape:connector-curvature="0"
         d="m 220,1106.9077 c -15.84092,0 -32.04545,0.6818 -33.40909,2.0454 -1.36364,1.3636 -2.04546,16.5227 -2.04546,33.4091"
         style="color:#000000;fill:none;stroke:#000000;stroke-width:2;stroke-linecap:butt;stroke-linejoin:miter;stroke-miterlimit:4;stroke-opacity:1;stroke-dasharray:none;stroke-dashoffset:0;marker:none;visibility:visible;display:inline;overflow:visible;enable-background:accumulate"
         id="path8460" />
      <path
         inkscape:connector-curvature="0"
         d="m 220,1102.8167 c -18.0091,0 -36.70455,0.5682 -37.84091,1.7046 -1.13636,1.1364 -1.70454,18.5773 -1.70454,37.8409"
         style="color:#000000;fill:none;stroke:#000000;stroke-width:2;stroke-linecap:butt;stroke-linejoin:miter;stroke-miterlimit:4;stroke-opacity:1;stroke-dasharray:none;stroke-dashoffset:0;marker:none;visibility:visible;display:inline;overflow:visible;enable-background:accumulate"
         id="path8462" />
      <path
         inkscape:connector-curvature="0"
         d="m 220,1098.7258 c -20.17729,0 -41.36364,0.4546 -42.27273,1.3637 -0.90909,0.9091 -1.36363,20.6318 -1.36363,42.2727"
         style="color:#000000;fill:none;stroke:#000000;stroke-width:2;stroke-linecap:butt;stroke-linejoin:miter;stroke-miterlimit:4;stroke-opacity:1;stroke-dasharray:none;stroke-dashoffset:0;marker:none;visibility:visible;display:inline;overflow:visible;enable-background:accumulate"
         id="path8464" />
      <path
         inkscape:connector-curvature="0"
         d="m 220,1094.6349 c -22.34547,0 -46.02273,0.3409 -46.70455,1.0228 -0.68181,0.6818 -1.02272,22.6863 -1.02272,46.7045"
         style="color:#000000;fill:none;stroke:#000000;stroke-width:2;stroke-linecap:butt;stroke-linejoin:miter;stroke-miterlimit:4;stroke-opacity:1;stroke-dasharray:none;stroke-dashoffset:0;marker:none;visibility:visible;display:inline;overflow:visible;enable-background:accumulate"
         id="path8466" />
      <path
         inkscape:connector-curvature="0"
         d="m 220,1090.544 c -24.51365,0 -50.68182,0.2273 -51.13636,0.6818 -0.45455,0.4546 -0.68182,24.7409 -0.68182,51.1364"
         style="color:#000000;fill:none;stroke:#000000;stroke-width:2;stroke-linecap:butt;stroke-linejoin:miter;stroke-miterlimit:4;stroke-opacity:1;stroke-dasharray:none;stroke-dashoffset:0;marker:none;visibility:visible;display:inline;overflow:visible;enable-background:accumulate"
         id="path8468" />
      <path
         inkscape:connector-curvature="0"
         d="m 220,1086.4531 c -26.68184,0 -55.34091,0.1136 -55.56818,0.3409 -0.22727,0.2273 -0.34091,26.7955 -0.34091,55.5682"
         style="color:#000000;fill:none;stroke:#000000;stroke-width:2;stroke-linecap:butt;stroke-linejoin:miter;stroke-miterlimit:4;stroke-opacity:1;stroke-dasharray:none;stroke-dashoffset:0;marker:none;visibility:visible;display:inline;overflow:visible;enable-background:accumulate"
         id="path8470" />
      <path
         inkscape:connector-curvature="0"
         d="m 220,1082.3622 c -28.85002,0 -60,0 -60,0 0,0 0,28.85 0,60"
         style="color:#000000;fill:none;stroke:#000000;stroke-width:2;stroke-linecap:butt;stroke-linejoin:miter;stroke-miterlimit:4;stroke-opacity:1;stroke-dasharray:none;stroke-dashoffset:0;marker:none;visibility:visible;display:inline;overflow:visible;enable-background:accumulate"
         id="path8472" />
    </g>
    <path
       sodipodi:nodetypes="ccc"
       inkscape:connector-curvature="0"
       id="path8519"
       d="m 220,1152.3622 c -28.85002,0 -60,0 -60,0 0,0 0,28.85 0,60"
       style="color:#000000;fill:none;stroke:#000000;stroke-width:2;stroke-linecap:butt;stroke-linejoin:miter;stroke-miterlimit:4;stroke-opacity:1;stroke-dasharray:none;stroke-dashoffset:0;marker:none;visibility:visible;display:inline;overflow:visible;enable-background:accumulate" />
    <path
       style="color:#000000;fill:none;stroke:#000000;stroke-width:2;stroke-linecap:butt;stroke-linejoin:miter;stroke-miterlimit:4;stroke-opacity:1;stroke-dasharray:none;stroke-dashoffset:0;marker:none;visibility:visible;display:inline;overflow:visible;enable-background:accumulate"
       d="m 220,1182.3622 c -20,0 -30,10 -30,30"
       id="path8521"
       inkscape:connector-curvature="0"
       sodipodi:nodetypes="cc" />
    <g
       id="g11593"
       transform="translate(70,0)">
      <path
         id="path11595"
         style="color:#000000;fill:none;stroke:#000000;stroke-width:2;stroke-linecap:butt;stroke-linejoin:miter;stroke-miterlimit:4;stroke-opacity:1;stroke-dasharray:none;stroke-dashoffset:0;marker:none;visibility:visible;display:inline;overflow:visible;enable-background:accumulate"
         d="m 220,1182.3622 c -10,0 -17.5,2.5 -22.5,7.5 -5,5 -7.5,12.5 -7.5,22.5"
         inkscape:connector-curvature="0" />
      <path
         id="path11597"
         style="color:#000000;fill:none;stroke:#000000;stroke-width:2;stroke-linecap:butt;stroke-linejoin:miter;stroke-miterlimit:4;stroke-opacity:1;stroke-dasharray:none;stroke-dashoffset:0;marker:none;visibility:visible;display:inline;overflow:visible;enable-background:accumulate"
         d="m 220,1177.3622 c -13.14167,0 -24.58333,2.0833 -28.75,6.25 -4.16667,4.1667 -6.25,15.225 -6.25,28.75"
         inkscape:connector-curvature="0" />
      <path
         id="path11599"
         style="color:#000000;fill:none;stroke:#000000;stroke-width:2;stroke-linecap:butt;stroke-linejoin:miter;stroke-miterlimit:4;stroke-opacity:1;stroke-dasharray:none;stroke-dashoffset:0;marker:none;visibility:visible;display:inline;overflow:visible;enable-background:accumulate"
         d="m 220,1172.3622 c -16.28334,0 -31.66667,1.6667 -35,5 -3.33333,3.3333 -5,17.95 -5,35"
         inkscape:connector-curvature="0" />
      <path
         id="path11601"
         style="color:#000000;fill:none;stroke:#000000;stroke-width:2;stroke-linecap:butt;stroke-linejoin:miter;stroke-miterlimit:4;stroke-opacity:1;stroke-dasharray:none;stroke-dashoffset:0;marker:none;visibility:visible;display:inline;overflow:visible;enable-background:accumulate"
         d="m 220,1167.3622 c -19.42501,0 -38.75,1.25 -41.25,3.75 -2.5,2.5 -3.75,20.675 -3.75,41.25"
         inkscape:connector-curvature="0" />
      <path
         id="path11603"
         style="color:#000000;fill:none;stroke:#000000;stroke-width:2;stroke-linecap:butt;stroke-linejoin:miter;stroke-miterlimit:4;stroke-opacity:1;stroke-dasharray:none;stroke-dashoffset:0;marker:none;visibility:visible;display:inline;overflow:visible;enable-background:accumulate"
         d="m 220,1162.3622 c -22.56668,0 -45.83333,0.8333 -47.5,2.5 -1.66667,1.6667 -2.5,23.4 -2.5,47.5"
         inkscape:connector-curvature="0" />
      <path
         id="path11605"
         style="color:#000000;fill:none;stroke:#000000;stroke-width:2;stroke-linecap:butt;stroke-linejoin:miter;stroke-miterlimit:4;stroke-opacity:1;stroke-dasharray:none;stroke-dashoffset:0;marker:none;visibility:visible;display:inline;overflow:visible;enable-background:accumulate"
         d="m 220,1157.3622 c -25.70835,0 -52.91667,0.4167 -53.75,1.25 -0.83333,0.8333 -1.25,26.125 -1.25,53.75"
         inkscape:connector-curvature="0" />
      <path
         id="path11607"
         style="color:#000000;fill:none;stroke:#000000;stroke-width:2;stroke-linecap:butt;stroke-linejoin:miter;stroke-miterlimit:4;stroke-opacity:1;stroke-dasharray:none;stroke-dashoffset:0;marker:none;visibility:visible;display:inline;overflow:visible;enable-background:accumulate"
         d="m 220,1152.3622 c -28.85002,0 -60,0 -60,0 0,0 0,28.85 0,60"
         inkscape:connector-curvature="0" />
    </g>
    <path
       sodipodi:type="arc"
       style="color:#000000;fill:none;stroke:#000000;stroke-width:2;stroke-linecap:butt;stroke-linejoin:miter;stroke-miterlimit:4;stroke-opacity:1;stroke-dasharray:none;stroke-dashoffset:0;marker:none;visibility:visible;display:inline;overflow:visible;enable-background:accumulate"
       id="path11664"
       sodipodi:cx="290"
       sodipodi:cy="1212.3622"
       sodipodi:rx="5"
       sodipodi:ry="5"
       d="m 295,1212.3622 a 5,5 0 1 1 -10,0 5,5 0 1 1 10,0 z" />
    <path
       d="m 295,1212.3622 a 5,5 0 1 1 -10,0 5,5 0 1 1 10,0 z"
       sodipodi:ry="5"
       sodipodi:rx="5"
       sodipodi:cy="1212.3622"
       sodipodi:cx="290"
       id="path11666"
       style="color:#000000;fill:none;stroke:#000000;stroke-width:1;stroke-linecap:butt;stroke-linejoin:miter;stroke-miterlimit:4;stroke-opacity:1;stroke-dasharray:none;stroke-dashoffset:0;marker:none;visibility:visible;display:inline;overflow:visible;enable-background:accumulate"
       sodipodi:type="arc"
       transform="matrix(2,0,0,2,-290,-1212.3622)" />
    <path
       transform="matrix(3.0000035,0,0,3.0000035,-580.00101,-2424.7286)"
       sodipodi:type="arc"
       style="color:#000000;fill:none;stroke:#000000;stroke-width:0.66666591;stroke-linecap:butt;stroke-linejoin:miter;stroke-miterlimit:4;stroke-opacity:1;stroke-dasharray:none;stroke-dashoffset:0;marker:none;visibility:visible;display:inline;overflow:visible;enable-background:accumulate"
       id="path11668"
       sodipodi:cx="290"
       sodipodi:cy="1212.3622"
       sodipodi:rx="5"
       sodipodi:ry="5"
       d="m 295,1212.3622 a 5,5 0 1 1 -10,0 5,5 0 1 1 10,0 z" />
    <path
       d="m 295,1212.3622 a 5,5 0 1 1 -10,0 5,5 0 1 1 10,0 z"
       sodipodi:ry="5"
       sodipodi:rx="5"
       sodipodi:cy="1212.3622"
       sodipodi:cx="290"
       id="path11670"
       style="color:#000000;fill:none;stroke:#000000;stroke-width:0.50000024;stroke-linecap:butt;stroke-linejoin:miter;stroke-miterlimit:4;stroke-opacity:1;stroke-dasharray:none;stroke-dashoffset:0;marker:none;visibility:visible;display:inline;overflow:visible;enable-background:accumulate"
       sodipodi:type="arc"
       transform="matrix(3.9999983,0,0,3.9999983,-869.9995,-3637.0845)" />
    <path
       transform="matrix(4.9999986,0,0,4.9999986,-1159.9996,-4849.447)"
       sodipodi:type="arc"
       style="color:#000000;fill:none;stroke:#000000;stroke-width:0.40000013;stroke-linecap:butt;stroke-linejoin:miter;stroke-miterlimit:4;stroke-opacity:1;stroke-dasharray:none;stroke-dashoffset:0;marker:none;visibility:visible;display:inline;overflow:visible;enable-background:accumulate"
       id="path11672"
       sodipodi:cx="290"
       sodipodi:cy="1212.3622"
       sodipodi:rx="5"
       sodipodi:ry="5"
       d="m 295,1212.3622 a 5,5 0 1 1 -10,0 5,5 0 1 1 10,0 z" />
    <rect
       style="color:#000000;fill:#ffffff;stroke:#000000;stroke-width:2;stroke-linecap:butt;stroke-linejoin:miter;stroke-miterlimit:4;stroke-opacity:1;stroke-dasharray:none;stroke-dashoffset:0;marker:none;visibility:visible;display:inline;overflow:visible;enable-background:accumulate"
       id="rect11693"
       width="130"
       height="130"
       x="-75"
       y="1082.3622" />
    <path
       style="color:#000000;fill:#ffffff;stroke:#000000;stroke-width:2;stroke-linecap:butt;stroke-linejoin:miter;stroke-miterlimit:4;stroke-opacity:1;stroke-dasharray:none;stroke-dashoffset:0;marker:none;visibility:visible;display:inline;overflow:visible;enable-background:accumulate"
       d="m -75,1082.3622 130,130 0,-130 -130,130 z"
       id="path11695"
       inkscape:connector-curvature="0" />
    <path
       sodipodi:type="arc"
       style="color:#000000;fill:#ffffff;stroke:#000000;stroke-width:2;stroke-linecap:butt;stroke-linejoin:miter;stroke-miterlimit:4;stroke-opacity:1;stroke-dasharray:none;stroke-dashoffset:0;marker:none;visibility:visible;display:inline;overflow:visible;enable-background:accumulate"
       id="path11697"
       sodipodi:cx="-10"
       sodipodi:cy="1147.3622"
       sodipodi:rx="5"
       sodipodi:ry="5"
       d="m -5,1147.3622 a 5,5 0 1 1 -10,0 5,5 0 1 1 10,0 z" />
  </g>
</svg>
