<?xml version="1.0" encoding="UTF-8" standalone="no"?>
<!-- Created with Inkscape (http://www.inkscape.org/) -->

<svg
   xmlns:dc="http://purl.org/dc/elements/1.1/"
   xmlns:cc="http://creativecommons.org/ns#"
   xmlns:rdf="http://www.w3.org/1999/02/22-rdf-syntax-ns#"
   xmlns:svg="http://www.w3.org/2000/svg"
   xmlns="http://www.w3.org/2000/svg"
   xmlns:sodipodi="http://sodipodi.sourceforge.net/DTD/sodipodi-0.dtd"
   xmlns:inkscape="http://www.inkscape.org/namespaces/inkscape"
   width="744.09448819"
   height="1052.3622047"
   id="svg2"
   version="1.1"
   inkscape:version="0.48.4 r9939"
   sodipodi:docname="vector brush concepts.svg">
  <sodipodi:namedview
     id="base"
     pagecolor="#ffffff"
     bordercolor="#666666"
     borderopacity="1.0"
     inkscape:pageopacity="0.0"
     inkscape:pageshadow="2"
     inkscape:zoom="1"
     inkscape:cx="500.40164"
     inkscape:cy="364.04893"
     inkscape:document-units="px"
     inkscape:current-layer="layer1"
     showgrid="false"
     inkscape:snap-bbox="true"
     inkscape:window-width="1280"
     inkscape:window-height="776"
     inkscape:window-x="0"
     inkscape:window-y="304"
     inkscape:window-maximized="1">
    <inkscape:grid
       id="grid3020"
       type="xygrid" />
  </sodipodi:namedview>
  <defs
     id="defs4" />
  <metadata
     id="metadata7">
    <rdf:RDF>
      <cc:Work
         rdf:about="">
        <dc:format>image/svg+xml</dc:format>
        <dc:type
           rdf:resource="http://purl.org/dc/dcmitype/StillImage" />
        <dc:title />
      </cc:Work>
    </rdf:RDF>
  </metadata>
  <g
     id="layer1"
     inkscape:groupmode="layer"
     inkscape:label="Layer 1">
    <path
       sodipodi:nodetypes="ccc"
       inkscape:connector-curvature="0"
       id="path2987"
       d="m 114,431.36218 c 262.0173,109.42449 204.8139,-320.17282 361,-259 -151.6241,-52.14821 -97.16218,376.80989 -361,259 z"
       style="color:#000000;fill:#000000;stroke:none;stroke-width:2;marker:none;visibility:visible;display:inline;overflow:visible;enable-background:accumulate" />
    <path
       style="color:#000000;fill:#000000;stroke:none;stroke-width:2;marker:none;visibility:visible;display:inline;overflow:visible;enable-background:accumulate"
       d="m 116,429.36218 c 262.0173,109.42449 204.8139,-320.17282 361,-259 -151.6241,-52.14821 -97.16218,376.80989 -361,259 z"
       id="path2989"
       inkscape:connector-curvature="0"
       sodipodi:nodetypes="ccc" />
    <path
       sodipodi:nodetypes="ccc"
       inkscape:connector-curvature="0"
       id="path2991"
       d="m 116,434.36218 c 262.0173,109.42449 204.8139,-320.17282 361,-259 -151.6241,-52.14821 -97.16218,376.80989 -361,259 z"
       style="color:#000000;fill:#000000;stroke:none;stroke-width:2;marker:none;visibility:visible;display:inline;overflow:visible;enable-background:accumulate" />
    <path
       style="color:#000000;fill:#000000;stroke:none;stroke-width:2;marker:none;visibility:visible;display:inline;overflow:visible;enable-background:accumulate"
       d="m 118,434.36218 c 262.0173,109.42449 204.8139,-320.17282 361,-259 -151.6241,-52.14821 -97.16218,376.80989 -361,259 z"
       id="path2993"
       inkscape:connector-curvature="0"
       sodipodi:nodetypes="ccc" />
    <path
       sodipodi:nodetypes="ccc"
       inkscape:connector-curvature="0"
       id="path2995"
       d="m 113,429.36218 c 262.0173,109.42449 204.8139,-320.17282 361,-259 -151.6241,-52.14821 -97.16218,376.80989 -361,259 z"
       style="color:#000000;fill:#000000;stroke:none;stroke-width:2;marker:none;visibility:visible;display:inline;overflow:visible;enable-background:accumulate" />
    <path
       style="color:#000000;fill:#000000;stroke:none;stroke-width:2;marker:none;visibility:visible;display:inline;overflow:visible;enable-background:accumulate"
       d="m 113,431.36218 c 262.0173,109.42449 204.8139,-320.17282 361,-259 -151.6241,-52.14821 -97.16218,376.80989 -361,259 z"
       id="path2997"
       inkscape:connector-curvature="0"
       sodipodi:nodetypes="ccc" />
    <path
       sodipodi:nodetypes="ccc"
       inkscape:connector-curvature="0"
       id="path2999"
       d="m 111,429.36218 c 262.0173,109.42449 204.8139,-320.17282 361,-259 -151.6241,-52.14821 -97.16218,376.80989 -361,259 z"
       style="color:#000000;fill:#000000;stroke:none;stroke-width:2;marker:none;visibility:visible;display:inline;overflow:visible;enable-background:accumulate" />
    <path
       style="color:#000000;fill:#000000;stroke:none;stroke-width:2;marker:none;visibility:visible;display:inline;overflow:visible;enable-background:accumulate"
       d="m 118,433.36218 c 262.0173,109.42449 204.8139,-320.17282 361,-259 -151.6241,-52.14821 -97.16218,376.80989 -361,259 z"
       id="path3001"
       inkscape:connector-curvature="0"
       sodipodi:nodetypes="ccc" />
    <path
       inkscape:connector-curvature="0"
       id="path3003"
       d="M 762.03125,164.375 C 657.46219,166.60793 668.83382,444.56026 511.21875,447.28125 489.50132,446.86204 464.65814,441.3433 436,429.375 c 10.01026,4.46982 19.565,8.1107 28.6875,11.0625 -10.01827,-2.7818 -20.5582,-6.41465 -31.6875,-11.0625 7.47611,3.33826 14.67935,6.20388 21.65625,8.6875 -7.58082,-2.39817 -15.46821,-5.26798 -23.65625,-8.6875 15.95967,7.12637 30.75364,12.20997 44.5,15.5625 -12.87609,-2.92665 -26.67705,-7.37209 -41.5,-13.5625 3.96208,1.76916 7.83595,3.41146 11.65625,4.9375 -1.86788,-0.68279 -3.75395,-1.38427 -5.65625,-2.125 -0.36447,-0.1493 -0.72803,-0.28609 -1.09375,-0.4375 -1.94565,-0.76647 -3.9243,-1.54729 -5.90625,-2.375 4.77734,2.1332 9.42826,4.06298 14,5.84375 8.50926,3.49286 16.68986,6.39651 24.53125,8.75 C 460.9638,443.13197 449.81724,439.31015 438,434.375 c 7.47611,3.33826 14.67935,6.20388 21.65625,8.6875 -7.58082,-2.39817 -15.46821,-5.26798 -23.65625,-8.6875 32.97973,14.72624 60.9742,20.88395 85.03125,20.53125 158.46186,0.0615 147.44314,-280.69415 251.8125,-283.9375 7.4384,0.0201 15.46131,1.41579 24.15625,4.40625 -2.97869,-1.16665 -5.86035,-2.15196 -8.6875,-2.96875 3.4426,0.71344 7.00991,1.70391 10.6875,2.96875 -6.21805,-2.4354 -12.08102,-4.11784 -17.65625,-5.0625 5.56677,0.5902 11.43098,1.92144 17.65625,4.0625 -21.63308,-8.47295 -39.17048,-7.52734 -54.03125,0.0937 -0.0507,0.0236 -0.10563,0.0388 -0.15625,0.0625 -0.17736,0.0916 -0.35466,0.18776 -0.53125,0.28125 -0.99884,0.48079 -1.99355,0.99147 -2.96875,1.53125 8.25957,-5.09421 17.33465,-8.05813 27.53125,-8.375 7.71855,-0.10902 16.07053,1.28139 25.15625,4.40625 -1.82546,-0.71497 -3.60699,-1.35497 -5.375,-1.9375 2.08251,0.55143 4.20998,1.19288 6.375,1.9375 -10.70794,-4.19394 -20.40767,-6.08776 -29.28125,-6 1.41114,-0.17397 2.82578,-0.30815 4.28125,-0.375 6.82649,0.26041 14.13859,1.67122 22,4.375 -2.97869,-1.16665 -5.86035,-2.15196 -8.6875,-2.96875 3.4426,0.71344 7.00991,1.70391 10.6875,2.96875 -3.66061,-1.43374 -7.19197,-2.62343 -10.625,-3.53125 4.35174,0.72134 8.88675,1.90162 13.625,3.53125 -11.18745,-4.38175 -21.27524,-6.24455 -30.46875,-5.96875 -0.94403,-0.0189 -1.88687,-0.0248 -2.8125,0 -0.56112,-0.004 -1.13294,-0.0431 -1.6875,-0.0312 z"
       style="color:#000000;fill:#000000;stroke:none;stroke-width:2;marker:none;visibility:visible;display:inline;overflow:visible;enable-background:accumulate" />
    <path
       transform="matrix(0.9,0,0,0.9,10,-181.26378)"
       d="m 110,682.36218 a 5,5 0 1 1 -10,0 5,5 0 1 1 10,0 z"
       sodipodi:ry="5"
       sodipodi:rx="5"
       sodipodi:cy="682.36218"
       sodipodi:cx="105"
       id="path3022"
       style="color:#000000;fill:none;stroke:#ff0000;stroke-width:0.55555552;stroke-miterlimit:4;stroke-dasharray:none;marker:none;visibility:visible;display:inline;overflow:visible;enable-background:accumulate"
       sodipodi:type="arc" />
    <path
       transform="translate(0.03125,-249.78125)"
       d="m 101,682.86218 a 0.5,0.5 0 1 1 -1,0 0.5,0.5 0 1 1 1,0 z"
       sodipodi:ry="0.5"
       sodipodi:rx="0.5"
       sodipodi:cy="682.86218"
       sodipodi:cx="100.5"
       id="path3792"
       style="color:#000000;fill:#000000;stroke:none;stroke-width:0.5;marker:none;visibility:visible;display:inline;overflow:visible;enable-background:accumulate"
       sodipodi:type="arc" />
    <path
       transform="translate(7.9375,-250.375)"
       sodipodi:type="arc"
       style="color:#000000;fill:#000000;stroke:none;stroke-width:0.5;marker:none;visibility:visible;display:inline;overflow:visible;enable-background:accumulate"
       id="path3794"
       sodipodi:cx="100.5"
       sodipodi:cy="682.86218"
       sodipodi:rx="0.5"
       sodipodi:ry="0.5"
       d="m 101,682.86218 a 0.5,0.5 0 1 1 -1,0 0.5,0.5 0 1 1 1,0 z" />
    <path
       d="m 101,682.86218 a 0.5,0.5 0 1 1 -1,0 0.5,0.5 0 1 1 1,0 z"
       sodipodi:ry="0.5"
       sodipodi:rx="0.5"
       sodipodi:cy="682.86218"
       sodipodi:cx="100.5"
       id="path3796"
       style="color:#000000;fill:#000000;stroke:none;stroke-width:0.5;marker:none;visibility:visible;display:inline;overflow:visible;enable-background:accumulate"
       sodipodi:type="arc"
       transform="translate(4,-254)" />
    <path
       transform="translate(4.21875,-246)"
       sodipodi:type="arc"
       style="color:#000000;fill:#000000;stroke:none;stroke-width:0.5;marker:none;visibility:visible;display:inline;overflow:visible;enable-background:accumulate"
       id="path3798"
       sodipodi:cx="100.5"
       sodipodi:cy="682.86218"
       sodipodi:rx="0.5"
       sodipodi:ry="0.5"
       d="m 101,682.86218 a 0.5,0.5 0 1 1 -1,0 0.5,0.5 0 1 1 1,0 z" />
    <path
       d="m 101,682.86218 a 0.5,0.5 0 1 1 -1,0 0.5,0.5 0 1 1 1,0 z"
       sodipodi:ry="0.5"
       sodipodi:rx="0.5"
       sodipodi:cy="682.86218"
       sodipodi:cx="100.5"
       id="path3800"
       style="color:#000000;fill:#000000;stroke:none;stroke-width:0.5;marker:none;visibility:visible;display:inline;overflow:visible;enable-background:accumulate"
       sodipodi:type="arc"
       transform="translate(2.71875,-252.21875)" />
    <path
       transform="translate(5.625,-251.21875)"
       sodipodi:type="arc"
       style="color:#000000;fill:#000000;stroke:none;stroke-width:0.5;marker:none;visibility:visible;display:inline;overflow:visible;enable-background:accumulate"
       id="path3802"
       sodipodi:cx="100.5"
       sodipodi:cy="682.86218"
       sodipodi:rx="0.5"
       sodipodi:ry="0.5"
       d="m 101,682.86218 a 0.5,0.5 0 1 1 -1,0 0.5,0.5 0 1 1 1,0 z" />
    <path
       d="m 101,682.86218 a 0.5,0.5 0 1 1 -1,0 0.5,0.5 0 1 1 1,0 z"
       sodipodi:ry="0.5"
       sodipodi:rx="0.5"
       sodipodi:cy="682.86218"
       sodipodi:cx="100.5"
       id="path3804"
       style="color:#000000;fill:#000000;stroke:none;stroke-width:0.5;marker:none;visibility:visible;display:inline;overflow:visible;enable-background:accumulate"
       sodipodi:type="arc"
       transform="translate(6.4375,-247.5)" />
    <path
       transform="translate(1.9375,-247.625)"
       sodipodi:type="arc"
       style="color:#000000;fill:#000000;stroke:none;stroke-width:0.5;marker:none;visibility:visible;display:inline;overflow:visible;enable-background:accumulate"
       id="path3806"
       sodipodi:cx="100.5"
       sodipodi:cy="682.86218"
       sodipodi:rx="0.5"
       sodipodi:ry="0.5"
       d="m 101,682.86218 a 0.5,0.5 0 1 1 -1,0 0.5,0.5 0 1 1 1,0 z" />
    <path
       d="m 101,682.86218 a 0.5,0.5 0 1 1 -1,0 0.5,0.5 0 1 1 1,0 z"
       sodipodi:ry="0.5"
       sodipodi:rx="0.5"
       sodipodi:cy="682.86218"
       sodipodi:cx="100.5"
       id="path3808"
       style="color:#000000;fill:#000000;stroke:none;stroke-width:0.5;marker:none;visibility:visible;display:inline;overflow:visible;enable-background:accumulate"
       sodipodi:type="arc"
       transform="translate(3.03125,-249.71875)" />
    <g
       transform="translate(110,-250)"
       id="g3842">
      <path
         style="color:#000000;fill:none;stroke:#000000;stroke-width:0.5;stroke-linecap:butt;stroke-linejoin:miter;stroke-miterlimit:4;stroke-opacity:1;stroke-dasharray:none;stroke-dashoffset:0;marker:none;visibility:visible;display:inline;overflow:visible;enable-background:accumulate"
         d="m 110,822.36218 0,20 -10,-10 20,0 z"
         id="path3832"
         inkscape:connector-curvature="0" />
      <path
         inkscape:connector-curvature="0"
         id="path3834"
         d="m 230,862.36218 0,20 -10,-10 20,0 z"
         style="color:#000000;fill:none;stroke:#000000;stroke-width:0.5;stroke-linecap:butt;stroke-linejoin:miter;stroke-miterlimit:4;stroke-opacity:1;stroke-dasharray:none;stroke-dashoffset:0;marker:none;visibility:visible;display:inline;overflow:visible;enable-background:accumulate" />
      <path
         style="color:#000000;fill:none;stroke:#000000;stroke-width:0.5;stroke-linecap:butt;stroke-linejoin:miter;stroke-miterlimit:4;stroke-opacity:1;stroke-dasharray:none;stroke-dashoffset:0;marker:none;visibility:visible;display:inline;overflow:visible;enable-background:accumulate"
         d="m 380,832.36218 0,20 -10,-10 20,0 z"
         id="path3836"
         inkscape:connector-curvature="0" />
      <path
         inkscape:connector-curvature="0"
         id="path3838"
         d="m 510,792.36218 0,20 -10,-10 20,0 z"
         style="color:#000000;fill:none;stroke:#000000;stroke-width:0.5;stroke-linecap:butt;stroke-linejoin:miter;stroke-miterlimit:4;stroke-opacity:1;stroke-dasharray:none;stroke-dashoffset:0;marker:none;visibility:visible;display:inline;overflow:visible;enable-background:accumulate" />
      <path
         style="color:#000000;fill:none;stroke:#000000;stroke-width:0.5;stroke-linecap:butt;stroke-linejoin:miter;stroke-miterlimit:4;stroke-opacity:1;stroke-dasharray:none;stroke-dashoffset:0;marker:none;visibility:visible;display:inline;overflow:visible;enable-background:accumulate"
         d="m 620,812.36218 0,20 -10,-10 20,0 z"
         id="path3840"
         inkscape:connector-curvature="0" />
    </g>
    <path
       inkscape:connector-curvature="0"
       id="path3849"
       d="m 220,582.36218 120,40 150,-30 130,-40 110,20"
       style="color:#000000;fill:none;stroke:#000000;stroke-width:2;stroke-linecap:butt;stroke-linejoin:miter;stroke-miterlimit:4;stroke-opacity:1;stroke-dasharray:none;stroke-dashoffset:0;marker:none;visibility:visible;display:inline;overflow:visible;enable-background:accumulate" />
    <g
       transform="translate(110,-170)"
       id="g3861">
      <path
         inkscape:connector-curvature="0"
         id="path3863"
         d="m 110,822.36218 0,20 -10,-10 20,0 z"
         style="color:#000000;fill:none;stroke:#000000;stroke-width:0.5;stroke-linecap:butt;stroke-linejoin:miter;stroke-miterlimit:4;stroke-opacity:1;stroke-dasharray:none;stroke-dashoffset:0;marker:none;visibility:visible;display:inline;overflow:visible;enable-background:accumulate" />
      <path
         style="color:#000000;fill:none;stroke:#000000;stroke-width:0.5;stroke-linecap:butt;stroke-linejoin:miter;stroke-miterlimit:4;stroke-opacity:1;stroke-dasharray:none;stroke-dashoffset:0;marker:none;visibility:visible;display:inline;overflow:visible;enable-background:accumulate"
         d="m 230,862.36218 0,20 -10,-10 20,0 z"
         id="path3865"
         inkscape:connector-curvature="0" />
      <path
         inkscape:connector-curvature="0"
         id="path3867"
         d="m 380,832.36218 0,20 -10,-10 20,0 z"
         style="color:#000000;fill:none;stroke:#000000;stroke-width:0.5;stroke-linecap:butt;stroke-linejoin:miter;stroke-miterlimit:4;stroke-opacity:1;stroke-dasharray:none;stroke-dashoffset:0;marker:none;visibility:visible;display:inline;overflow:visible;enable-background:accumulate" />
      <path
         style="color:#000000;fill:none;stroke:#000000;stroke-width:0.5;stroke-linecap:butt;stroke-linejoin:miter;stroke-miterlimit:4;stroke-opacity:1;stroke-dasharray:none;stroke-dashoffset:0;marker:none;visibility:visible;display:inline;overflow:visible;enable-background:accumulate"
         d="m 510,792.36218 0,20 -10,-10 20,0 z"
         id="path3869"
         inkscape:connector-curvature="0" />
      <path
         inkscape:connector-curvature="0"
         id="path3871"
         d="m 620,812.36218 0,20 -10,-10 20,0 z"
         style="color:#000000;fill:none;stroke:#000000;stroke-width:0.5;stroke-linecap:butt;stroke-linejoin:miter;stroke-miterlimit:4;stroke-opacity:1;stroke-dasharray:none;stroke-dashoffset:0;marker:none;visibility:visible;display:inline;overflow:visible;enable-background:accumulate" />
    </g>
    <path
       style="color:#000000;fill:none;stroke:#00ffff;stroke-width:2;stroke-linecap:butt;stroke-linejoin:miter;stroke-miterlimit:4;stroke-opacity:1;stroke-dasharray:none;stroke-dashoffset:0;marker:none;visibility:visible;display:inline;overflow:visible;enable-background:accumulate"
       d="m 340,702.36218 60,20"
       id="path3877"
       inkscape:connector-curvature="0"
       sodipodi:nodetypes="cc" />
    <path
       style="color:#000000;fill:none;stroke:#00ffff;stroke-width:2;stroke-linecap:butt;stroke-linejoin:miter;stroke-miterlimit:4;stroke-opacity:1;stroke-dasharray:none;stroke-dashoffset:0;marker:none;visibility:visible;display:inline;overflow:visible;enable-background:accumulate"
       d="m 490,672.36218 75,-15"
       id="path3879"
       inkscape:connector-curvature="0"
       sodipodi:nodetypes="cc" />
    <path
       style="color:#000000;fill:none;stroke:#00ffff;stroke-width:2;stroke-linecap:butt;stroke-linejoin:miter;stroke-miterlimit:4;stroke-opacity:1;stroke-dasharray:none;stroke-dashoffset:0;marker:none;visibility:visible;display:inline;overflow:visible;enable-background:accumulate"
       d="m 685,612.36218 -65,20"
       id="path3881"
       inkscape:connector-curvature="0"
       sodipodi:nodetypes="cc" />
    <g
       id="g3883"
       transform="translate(110,-90)">
      <path
         style="color:#000000;fill:none;stroke:#000000;stroke-width:0.5;stroke-linecap:butt;stroke-linejoin:miter;stroke-miterlimit:4;stroke-opacity:1;stroke-dasharray:none;stroke-dashoffset:0;marker:none;visibility:visible;display:inline;overflow:visible;enable-background:accumulate"
         d="m 110,822.36218 0,20 -10,-10 20,0 z"
         id="path3885"
         inkscape:connector-curvature="0" />
      <path
         inkscape:connector-curvature="0"
         id="path3887"
         d="m 230,862.36218 0,20 -10,-10 20,0 z"
         style="color:#000000;fill:none;stroke:#000000;stroke-width:0.5;stroke-linecap:butt;stroke-linejoin:miter;stroke-miterlimit:4;stroke-opacity:1;stroke-dasharray:none;stroke-dashoffset:0;marker:none;visibility:visible;display:inline;overflow:visible;enable-background:accumulate" />
      <path
         style="color:#000000;fill:none;stroke:#000000;stroke-width:0.5;stroke-linecap:butt;stroke-linejoin:miter;stroke-miterlimit:4;stroke-opacity:1;stroke-dasharray:none;stroke-dashoffset:0;marker:none;visibility:visible;display:inline;overflow:visible;enable-background:accumulate"
         d="m 380,832.36218 0,20 -10,-10 20,0 z"
         id="path3889"
         inkscape:connector-curvature="0" />
      <path
         inkscape:connector-curvature="0"
         id="path3891"
         d="m 510,792.36218 0,20 -10,-10 20,0 z"
         style="color:#000000;fill:none;stroke:#000000;stroke-width:0.5;stroke-linecap:butt;stroke-linejoin:miter;stroke-miterlimit:4;stroke-opacity:1;stroke-dasharray:none;stroke-dashoffset:0;marker:none;visibility:visible;display:inline;overflow:visible;enable-background:accumulate" />
      <path
         style="color:#000000;fill:none;stroke:#000000;stroke-width:0.5;stroke-linecap:butt;stroke-linejoin:miter;stroke-miterlimit:4;stroke-opacity:1;stroke-dasharray:none;stroke-dashoffset:0;marker:none;visibility:visible;display:inline;overflow:visible;enable-background:accumulate"
         d="m 620,812.36218 0,20 -10,-10 20,0 z"
         id="path3893"
         inkscape:connector-curvature="0" />
    </g>
    <path
       inkscape:connector-curvature="0"
       id="path3875"
       d="m 220,662.36218 120,40 c 60,20 150,-30 150,-30 75,-15 130,-40 130,-40 65,-20 110,20 110,20"
       style="color:#000000;fill:none;stroke:#000000;stroke-width:2;stroke-linecap:butt;stroke-linejoin:miter;stroke-miterlimit:4;stroke-opacity:1;stroke-dasharray:none;stroke-dashoffset:0;marker:none;visibility:visible;display:inline;overflow:visible;enable-background:accumulate"
       sodipodi:nodetypes="ccccc" />
    <path
       sodipodi:nodetypes="cc"
       inkscape:connector-curvature="0"
       id="path3924"
       d="m 340,782.3622 60,20"
       style="color:#000000;fill:none;stroke:#00ffff;stroke-width:2;stroke-linecap:butt;stroke-linejoin:miter;stroke-miterlimit:4;stroke-opacity:1;stroke-dasharray:none;stroke-dashoffset:0;marker:none;visibility:visible;display:inline;overflow:visible;enable-background:accumulate" />
    <path
       inkscape:transform-center-y="-25.085605"
       inkscape:transform-center-x="-28.86542"
       sodipodi:nodetypes="cc"
       inkscape:connector-curvature="0"
       id="path3926"
       d="m 490,752.3622 57.73084,-50.17121"
       style="color:#000000;fill:none;stroke:#00ffff;stroke-width:2;stroke-linecap:butt;stroke-linejoin:miter;stroke-miterlimit:4;stroke-opacity:1;stroke-dasharray:none;stroke-dashoffset:0;marker:none;visibility:visible;display:inline;overflow:visible;enable-background:accumulate" />
    <path
       inkscape:transform-center-y="4.01094"
       inkscape:transform-center-x="-33.76629"
       sodipodi:nodetypes="cc"
       inkscape:connector-curvature="0"
       id="path3928"
       d="M 687.53258,720.38406 620,712.36218"
       style="color:#000000;fill:none;stroke:#00ffff;stroke-width:2;stroke-linecap:butt;stroke-linejoin:miter;stroke-miterlimit:4;stroke-opacity:1;stroke-dasharray:none;stroke-dashoffset:0;marker:none;visibility:visible;display:inline;overflow:visible;enable-background:accumulate" />
    <path
       style="color:#000000;fill:none;stroke:#00ffff;stroke-width:2;stroke-linecap:butt;stroke-linejoin:miter;stroke-miterlimit:4;stroke-opacity:1;stroke-dasharray:none;stroke-dashoffset:0;marker:none;visibility:visible;display:inline;overflow:visible;enable-background:accumulate"
       d="m 490,752.3622 -47.52406,41.731"
       id="path3930"
       inkscape:connector-curvature="0"
       sodipodi:nodetypes="cc" />
    <path
       style="color:#000000;fill:none;stroke:#00ffff;stroke-width:2;stroke-linecap:butt;stroke-linejoin:miter;stroke-miterlimit:4;stroke-opacity:1;stroke-dasharray:none;stroke-dashoffset:0;marker:none;visibility:visible;display:inline;overflow:visible;enable-background:accumulate"
       d="m 620,712.36218 -75.95134,-9.02185"
       id="path3936"
       inkscape:connector-curvature="0"
       sodipodi:nodetypes="cc"
       inkscape:transform-center-x="37.97567"
       inkscape:transform-center-y="-4.510925" />
    <path
       style="color:#000000;fill:none;stroke:#00ffff;stroke-width:2;stroke-linecap:butt;stroke-linejoin:miter;stroke-miterlimit:4;stroke-opacity:1;stroke-dasharray:none;stroke-dashoffset:0;marker:none;visibility:visible;display:inline;overflow:visible;enable-background:accumulate"
       d="M 663.97987,716.04216 730,732.36218"
       id="path3942"
       inkscape:connector-curvature="0"
       sodipodi:nodetypes="cc"
       inkscape:transform-center-x="33.010065"
       inkscape:transform-center-y="-8.16001" />
    <path
       sodipodi:nodetypes="ccccc"
       inkscape:connector-curvature="0"
       id="path3895"
       d="m 220,742.36218 120,40.00002 c 60,20 102.47548,11.6795 150,-30 57.77717,-50.22015 54.15333,-49.0234 130,-40.00002 67.60796,8.03603 43.98748,3.66593 110,20"
       style="color:#000000;fill:none;stroke:#000000;stroke-width:2;stroke-linecap:butt;stroke-linejoin:miter;stroke-miterlimit:4;stroke-opacity:1;stroke-dasharray:none;stroke-dashoffset:0;marker:none;visibility:visible;display:inline;overflow:visible;enable-background:accumulate" />
    <text
       sodipodi:linespacing="125%"
       id="text3944"
       y="527.36218"
       x="256"
       style="font-size:12px;font-style:normal;font-variant:normal;font-weight:normal;font-stretch:normal;line-height:125%;letter-spacing:0px;word-spacing:0px;fill:#000000;fill-opacity:1;stroke:none;font-family:Liberation Mono;-inkscape-font-specification:Liberation Mono"
       xml:space="preserve"><tspan
         y="527.36218"
         x="256"
         id="tspan3946"
         sodipodi:role="line">Curves laid down by previous strokes</tspan><tspan
         id="tspan3948"
         y="542.36218"
         x="256"
         sodipodi:role="line">cannot be modified, so we need some</tspan><tspan
         id="tspan3950"
         y="557.36218"
         x="256"
         sodipodi:role="line">method of forward-only interpolation</tspan></text>
    <g
       transform="translate(110,-10)"
       id="g3952">
      <path
         inkscape:connector-curvature="0"
         id="path3954"
         d="m 110,822.36218 0,20 -10,-10 20,0 z"
         style="color:#000000;fill:none;stroke:#000000;stroke-width:0.5;stroke-linecap:butt;stroke-linejoin:miter;stroke-miterlimit:4;stroke-opacity:1;stroke-dasharray:none;stroke-dashoffset:0;marker:none;visibility:visible;display:inline;overflow:visible;enable-background:accumulate" />
      <path
         style="color:#000000;fill:none;stroke:#000000;stroke-width:0.5;stroke-linecap:butt;stroke-linejoin:miter;stroke-miterlimit:4;stroke-opacity:1;stroke-dasharray:none;stroke-dashoffset:0;marker:none;visibility:visible;display:inline;overflow:visible;enable-background:accumulate"
         d="m 230,862.36218 0,20 -10,-10 20,0 z"
         id="path3956"
         inkscape:connector-curvature="0" />
      <path
         inkscape:connector-curvature="0"
         id="path3958"
         d="m 380,832.36218 0,20 -10,-10 20,0 z"
         style="color:#000000;fill:none;stroke:#000000;stroke-width:0.5;stroke-linecap:butt;stroke-linejoin:miter;stroke-miterlimit:4;stroke-opacity:1;stroke-dasharray:none;stroke-dashoffset:0;marker:none;visibility:visible;display:inline;overflow:visible;enable-background:accumulate" />
      <path
         style="color:#000000;fill:none;stroke:#000000;stroke-width:0.5;stroke-linecap:butt;stroke-linejoin:miter;stroke-miterlimit:4;stroke-opacity:1;stroke-dasharray:none;stroke-dashoffset:0;marker:none;visibility:visible;display:inline;overflow:visible;enable-background:accumulate"
         d="m 510,792.36218 0,20 -10,-10 20,0 z"
         id="path3960"
         inkscape:connector-curvature="0" />
      <path
         inkscape:connector-curvature="0"
         id="path3962"
         d="m 620,812.36218 0,20 -10,-10 20,0 z"
         style="color:#000000;fill:none;stroke:#000000;stroke-width:0.5;stroke-linecap:butt;stroke-linejoin:miter;stroke-miterlimit:4;stroke-opacity:1;stroke-dasharray:none;stroke-dashoffset:0;marker:none;visibility:visible;display:inline;overflow:visible;enable-background:accumulate" />
    </g>
    <path
       style="color:#000000;fill:none;stroke:#00ffff;stroke-width:2;stroke-linecap:butt;stroke-linejoin:miter;stroke-miterlimit:4;stroke-opacity:1;stroke-dasharray:none;stroke-dashoffset:0;marker:none;visibility:visible;display:inline;overflow:visible;enable-background:accumulate"
       d="m 340,862.3622 30,10"
       id="path3964"
       inkscape:connector-curvature="0"
       sodipodi:nodetypes="cc" />
    <path
       style="color:#000000;fill:none;stroke:#00ffff;stroke-width:2;stroke-linecap:butt;stroke-linejoin:miter;stroke-miterlimit:4;stroke-opacity:1;stroke-dasharray:none;stroke-dashoffset:0;marker:none;visibility:visible;display:inline;overflow:visible;enable-background:accumulate"
       d="m 490,832.3622 28.86542,-25.0856"
       id="path3966"
       inkscape:connector-curvature="0"
       sodipodi:nodetypes="cc"
       inkscape:transform-center-x="-14.43271"
       inkscape:transform-center-y="-12.542803" />
    <path
       style="color:#000000;fill:none;stroke:#00ffff;stroke-width:2;stroke-linecap:butt;stroke-linejoin:miter;stroke-miterlimit:4;stroke-opacity:1;stroke-dasharray:none;stroke-dashoffset:0;marker:none;visibility:visible;display:inline;overflow:visible;enable-background:accumulate"
       d="M 653.76629,796.3731 620,792.3622"
       id="path3968"
       inkscape:connector-curvature="0"
       sodipodi:nodetypes="cc"
       inkscape:transform-center-x="-16.88315"
       inkscape:transform-center-y="2.00547" />
    <path
       sodipodi:nodetypes="cc"
       inkscape:connector-curvature="0"
       id="path3970"
       d="m 490,832.3622 -23.76203,20.8654"
       style="color:#000000;fill:none;stroke:#00ffff;stroke-width:2;stroke-linecap:butt;stroke-linejoin:miter;stroke-miterlimit:4;stroke-opacity:1;stroke-dasharray:none;stroke-dashoffset:0;marker:none;visibility:visible;display:inline;overflow:visible;enable-background:accumulate" />
    <path
       inkscape:transform-center-y="-2.2554625"
       inkscape:transform-center-x="18.98784"
       sodipodi:nodetypes="cc"
       inkscape:connector-curvature="0"
       id="path3972"
       d="m 620,792.3622 -37.97567,-4.5109"
       style="color:#000000;fill:none;stroke:#00ffff;stroke-width:2;stroke-linecap:butt;stroke-linejoin:miter;stroke-miterlimit:4;stroke-opacity:1;stroke-dasharray:none;stroke-dashoffset:0;marker:none;visibility:visible;display:inline;overflow:visible;enable-background:accumulate" />
    <path
       inkscape:transform-center-y="-4.080005"
       inkscape:transform-center-x="16.505028"
       sodipodi:nodetypes="cc"
       inkscape:connector-curvature="0"
       id="path3974"
       d="M 696.98994,804.2022 730,812.3622"
       style="color:#000000;fill:none;stroke:#00ffff;stroke-width:2;stroke-linecap:butt;stroke-linejoin:miter;stroke-miterlimit:4;stroke-opacity:1;stroke-dasharray:none;stroke-dashoffset:0;marker:none;visibility:visible;display:inline;overflow:visible;enable-background:accumulate" />
    <path
       style="color:#000000;fill:none;stroke:#000000;stroke-width:2;stroke-linecap:butt;stroke-linejoin:miter;stroke-miterlimit:4;stroke-opacity:1;stroke-dasharray:none;stroke-dashoffset:0;marker:none;visibility:visible;display:inline;overflow:visible;enable-background:accumulate"
       d="m 220,822.3622 120,40 c 29.875,10 126.35048,-9.1955 150,-30 28.65217,-24.9701 92.09083,-44.5234 130,-40 33.7564,4.0048 76.98748,11.8378 110,20"
       id="path3976"
       inkscape:connector-curvature="0"
       sodipodi:nodetypes="ccccc" />
    <text
       xml:space="preserve"
       style="font-size:12px;font-style:normal;font-variant:normal;font-weight:normal;font-stretch:normal;line-height:125%;letter-spacing:0px;word-spacing:0px;fill:#000000;fill-opacity:1;stroke:none;font-family:Liberation Mono;-inkscape-font-specification:Liberation Mono"
       x="37.273438"
       y="590.36218"
       id="text3978"
       sodipodi:linespacing="125%"><tspan
         sodipodi:role="line"
         x="37.273438"
         y="590.36218"
         id="tspan3984">Linear</tspan></text>
    <text
       sodipodi:linespacing="125%"
       id="text3991"
       y="645.36218"
       x="38"
       style="font-size:12px;font-style:normal;font-variant:normal;font-weight:normal;font-stretch:normal;line-height:125%;letter-spacing:0px;word-spacing:0px;fill:#000000;fill-opacity:1;stroke:none;font-family:Liberation Mono;-inkscape-font-specification:Liberation Mono"
       xml:space="preserve"><tspan
         id="tspan3995"
         y="645.36218"
         x="38"
         sodipodi:role="line">Cubic spline handle</tspan><tspan
         id="tspan3999"
         y="660.36218"
         x="38"
         sodipodi:role="line">on start of substroke</tspan><tspan
         id="tspan4001"
         y="675.36218"
         x="38"
         sodipodi:role="line">1/2 length of previous,</tspan><tspan
         id="tspan4003"
         y="690.36218"
         x="38"
         sodipodi:role="line">parallel to previous</tspan></text>
    <text
       xml:space="preserve"
       style="font-size:12px;font-style:normal;font-variant:normal;font-weight:normal;font-stretch:normal;line-height:125%;letter-spacing:0px;word-spacing:0px;fill:#000000;fill-opacity:1;stroke:none;font-family:Liberation Mono;-inkscape-font-specification:Liberation Mono"
       x="38"
       y="719.36218"
       id="text4005"
       sodipodi:linespacing="125%"><tspan
         sodipodi:role="line"
         x="38"
         y="719.36218"
         id="tspan4007">Cubic spline handle</tspan><tspan
         sodipodi:role="line"
         x="38"
         y="734.36218"
         id="tspan4009">on start and end of</tspan><tspan
         sodipodi:role="line"
         x="38"
         y="749.36218"
         id="tspan4011">substroke 1/2 length</tspan><tspan
         sodipodi:role="line"
         x="38"
         y="764.36218"
         id="tspan4013">of previous, parallel,</tspan><tspan
         id="tspan4019"
         sodipodi:role="line"
         x="38"
         y="779.36218">to previous</tspan></text>
    <text
       sodipodi:linespacing="125%"
       id="text4021"
       y="806.36218"
       x="38"
       style="font-size:12px;font-style:normal;font-variant:normal;font-weight:normal;font-stretch:normal;line-height:125%;letter-spacing:0px;word-spacing:0px;fill:#000000;fill-opacity:1;stroke:none;font-family:Liberation Mono;-inkscape-font-specification:Liberation Mono"
       xml:space="preserve"><tspan
         id="tspan4023"
         y="806.36218"
         x="38"
         sodipodi:role="line">Cubic spline handle</tspan><tspan
         id="tspan4025"
         y="821.36218"
         x="38"
         sodipodi:role="line">on start and end of</tspan><tspan
         id="tspan4027"
         y="836.36218"
         x="38"
         sodipodi:role="line">substroke 1/4 length</tspan><tspan
         id="tspan4029"
         y="851.36218"
         x="38"
         sodipodi:role="line">of previous, parallel</tspan><tspan
         y="866.36218"
         x="38"
         sodipodi:role="line"
         id="tspan4031">to previous</tspan></text>
    <text
       xml:space="preserve"
       style="font-size:12px;font-style:normal;font-variant:normal;font-weight:normal;font-stretch:normal;line-height:125%;letter-spacing:0px;word-spacing:0px;fill:#000000;fill-opacity:1;stroke:none;font-family:Liberation Mono;-inkscape-font-specification:Liberation Mono"
       x="38"
       y="896.36218"
       id="text4033"
       sodipodi:linespacing="125%"><tspan
         sodipodi:role="line"
         x="38"
         y="896.36218"
         id="tspan4035">Solution:</tspan><tspan
         id="tspan4045"
         sodipodi:role="line"
         x="38"
         y="911.36218">Cubic spline handle</tspan><tspan
         sodipodi:role="line"
         x="38"
         y="926.36218"
         id="tspan4037">on start and end of</tspan><tspan
         sodipodi:role="line"
         x="38"
         y="941.36218"
         id="tspan4039">substroke sin( Δθ )</tspan><tspan
         sodipodi:role="line"
         x="38"
         y="956.36218"
         id="tspan4041">times length of</tspan><tspan
         id="tspan4043"
         sodipodi:role="line"
         x="38"
         y="971.36218">previous, parallel to</tspan><tspan
         id="tspan4055"
         sodipodi:role="line"
         x="38"
         y="986.36218">previous</tspan></text>
    <text
       sodipodi:linespacing="125%"
       id="text4057"
       y="912.36218"
       x="246"
       style="font-size:12px;font-style:normal;font-variant:normal;font-weight:normal;font-stretch:normal;line-height:125%;letter-spacing:0px;word-spacing:0px;fill:#000000;fill-opacity:1;stroke:none;font-family:Liberation Mono;-inkscape-font-specification:Liberation Mono"
       xml:space="preserve"><tspan
         y="912.36218"
         x="246"
         sodipodi:role="line"
         id="tspan4071">For each segment, generate cubic handles as such:</tspan><tspan
         id="tspan4100"
         y="927.36218"
         x="246"
         sodipodi:role="line">    For the start node, the handle should be parallel</tspan><tspan
         id="tspan4102"
         y="942.36218"
         x="246"
         sodipodi:role="line">    to the previous segment and sin( Δθ ) times the</tspan><tspan
         id="tspan4104"
         y="957.36218"
         x="246"
         sodipodi:role="line">    length of the previous segment, where Δθ is the</tspan><tspan
         id="tspan4106"
         y="972.36218"
         x="246"
         sodipodi:role="line">    angular difference between this and the previous</tspan><tspan
         id="tspan4108"
         y="987.36218"
         x="246"
         sodipodi:role="line">    segment such that θ = 0 when the segments are</tspan><tspan
         id="tspan4110"
         y="1002.3622"
         x="246"
         sodipodi:role="line">    parallel.</tspan><tspan
         id="tspan4112"
         y="1017.3622"
         x="246"
         sodipodi:role="line">    For the end node, the angle of the handle should</tspan><tspan
         id="tspan4114"
         y="1032.3622"
         x="246"
         sodipodi:role="line">    be mi </tspan></text>
    <g
       transform="translate(0,15)"
       id="g4168">
      <path
         transform="matrix(0.9,0,0,0.9,-70,-231.26378)"
         d="m 110,682.36218 c 0,2.76143 -2.23858,5 -5,5 -2.76142,0 -5,-2.23857 -5,-5 0,-2.76142 2.23858,-5 5,-5 2.76142,0 5,2.23858 5,5 z"
         sodipodi:ry="5"
         sodipodi:rx="5"
         sodipodi:cy="682.36218"
         sodipodi:cx="105"
         id="path4116"
         style="color:#000000;fill:none;stroke:#ff0000;stroke-width:0.55555552;stroke-miterlimit:4;stroke-dasharray:none;marker:none;visibility:visible;display:inline;overflow:visible;enable-background:accumulate"
         sodipodi:type="arc" />
      <path
         transform="translate(-79.96875,-299.78125)"
         d="m 101,682.86218 c 0,0.27614 -0.22386,0.5 -0.5,0.5 -0.27614,0 -0.5,-0.22386 -0.5,-0.5 0,-0.27614 0.22386,-0.5 0.5,-0.5 0.27614,0 0.5,0.22386 0.5,0.5 z"
         sodipodi:ry="0.5"
         sodipodi:rx="0.5"
         sodipodi:cy="682.86218"
         sodipodi:cx="100.5"
         id="path4118"
         style="color:#000000;fill:#000000;stroke:none;stroke-width:0.5;marker:none;visibility:visible;display:inline;overflow:visible;enable-background:accumulate"
         sodipodi:type="arc" />
      <path
         transform="translate(-72.0625,-300.375)"
         sodipodi:type="arc"
         style="color:#000000;fill:#000000;stroke:none;stroke-width:0.5;marker:none;visibility:visible;display:inline;overflow:visible;enable-background:accumulate"
         id="path4120"
         sodipodi:cx="100.5"
         sodipodi:cy="682.86218"
         sodipodi:rx="0.5"
         sodipodi:ry="0.5"
         d="m 101,682.86218 c 0,0.27614 -0.22386,0.5 -0.5,0.5 -0.27614,0 -0.5,-0.22386 -0.5,-0.5 0,-0.27614 0.22386,-0.5 0.5,-0.5 0.27614,0 0.5,0.22386 0.5,0.5 z" />
      <path
         d="m 101,682.86218 c 0,0.27614 -0.22386,0.5 -0.5,0.5 -0.27614,0 -0.5,-0.22386 -0.5,-0.5 0,-0.27614 0.22386,-0.5 0.5,-0.5 0.27614,0 0.5,0.22386 0.5,0.5 z"
         sodipodi:ry="0.5"
         sodipodi:rx="0.5"
         sodipodi:cy="682.86218"
         sodipodi:cx="100.5"
         id="path4122"
         style="color:#000000;fill:#000000;stroke:none;stroke-width:0.5;marker:none;visibility:visible;display:inline;overflow:visible;enable-background:accumulate"
         sodipodi:type="arc"
         transform="translate(-76,-304)" />
      <path
         transform="translate(-75.78125,-296)"
         sodipodi:type="arc"
         style="color:#000000;fill:#000000;stroke:none;stroke-width:0.5;marker:none;visibility:visible;display:inline;overflow:visible;enable-background:accumulate"
         id="path4124"
         sodipodi:cx="100.5"
         sodipodi:cy="682.86218"
         sodipodi:rx="0.5"
         sodipodi:ry="0.5"
         d="m 101,682.86218 c 0,0.27614 -0.22386,0.5 -0.5,0.5 -0.27614,0 -0.5,-0.22386 -0.5,-0.5 0,-0.27614 0.22386,-0.5 0.5,-0.5 0.27614,0 0.5,0.22386 0.5,0.5 z" />
      <path
         d="m 101,682.86218 c 0,0.27614 -0.22386,0.5 -0.5,0.5 -0.27614,0 -0.5,-0.22386 -0.5,-0.5 0,-0.27614 0.22386,-0.5 0.5,-0.5 0.27614,0 0.5,0.22386 0.5,0.5 z"
         sodipodi:ry="0.5"
         sodipodi:rx="0.5"
         sodipodi:cy="682.86218"
         sodipodi:cx="100.5"
         id="path4126"
         style="color:#000000;fill:#000000;stroke:none;stroke-width:0.5;marker:none;visibility:visible;display:inline;overflow:visible;enable-background:accumulate"
         sodipodi:type="arc"
         transform="translate(-77.28125,-302.21875)" />
      <path
         transform="translate(-74.375,-301.21875)"
         sodipodi:type="arc"
         style="color:#000000;fill:#000000;stroke:none;stroke-width:0.5;marker:none;visibility:visible;display:inline;overflow:visible;enable-background:accumulate"
         id="path4128"
         sodipodi:cx="100.5"
         sodipodi:cy="682.86218"
         sodipodi:rx="0.5"
         sodipodi:ry="0.5"
         d="m 101,682.86218 c 0,0.27614 -0.22386,0.5 -0.5,0.5 -0.27614,0 -0.5,-0.22386 -0.5,-0.5 0,-0.27614 0.22386,-0.5 0.5,-0.5 0.27614,0 0.5,0.22386 0.5,0.5 z" />
      <path
         d="m 101,682.86218 c 0,0.27614 -0.22386,0.5 -0.5,0.5 -0.27614,0 -0.5,-0.22386 -0.5,-0.5 0,-0.27614 0.22386,-0.5 0.5,-0.5 0.27614,0 0.5,0.22386 0.5,0.5 z"
         sodipodi:ry="0.5"
         sodipodi:rx="0.5"
         sodipodi:cy="682.86218"
         sodipodi:cx="100.5"
         id="path4130"
         style="color:#000000;fill:#000000;stroke:none;stroke-width:0.5;marker:none;visibility:visible;display:inline;overflow:visible;enable-background:accumulate"
         sodipodi:type="arc"
         transform="translate(-73.5625,-297.5)" />
      <path
         transform="translate(-78.0625,-297.625)"
         sodipodi:type="arc"
         style="color:#000000;fill:#000000;stroke:none;stroke-width:0.5;marker:none;visibility:visible;display:inline;overflow:visible;enable-background:accumulate"
         id="path4132"
         sodipodi:cx="100.5"
         sodipodi:cy="682.86218"
         sodipodi:rx="0.5"
         sodipodi:ry="0.5"
         d="m 101,682.86218 c 0,0.27614 -0.22386,0.5 -0.5,0.5 -0.27614,0 -0.5,-0.22386 -0.5,-0.5 0,-0.27614 0.22386,-0.5 0.5,-0.5 0.27614,0 0.5,0.22386 0.5,0.5 z" />
      <path
         d="m 101,682.86218 c 0,0.27614 -0.22386,0.5 -0.5,0.5 -0.27614,0 -0.5,-0.22386 -0.5,-0.5 0,-0.27614 0.22386,-0.5 0.5,-0.5 0.27614,0 0.5,0.22386 0.5,0.5 z"
         sodipodi:ry="0.5"
         sodipodi:rx="0.5"
         sodipodi:cy="682.86218"
         sodipodi:cx="100.5"
         id="path4134"
         style="color:#000000;fill:#000000;stroke:none;stroke-width:0.5;marker:none;visibility:visible;display:inline;overflow:visible;enable-background:accumulate"
         sodipodi:type="arc"
         transform="translate(-76.96875,-299.71875)" />
    </g>
    <g
       transform="translate(0,15)"
       id="g4156">
      <path
         sodipodi:type="arc"
         style="color:#000000;fill:none;stroke:#ff0000;stroke-width:0.55555552;stroke-miterlimit:4;stroke-dasharray:none;marker:none;visibility:visible;display:inline;overflow:visible;enable-background:accumulate"
         id="path4136"
         sodipodi:cx="105"
         sodipodi:cy="682.36218"
         sodipodi:rx="5"
         sodipodi:ry="5"
         d="m 110,682.36218 c 0,2.76143 -2.23858,5 -5,5 -2.76142,0 -5,-2.23857 -5,-5 0,-2.76142 2.23858,-5 5,-5 2.76142,0 5,2.23858 5,5 z"
         transform="matrix(0.9,0,0,0.9,20,-231.26378)" />
      <path
         sodipodi:type="arc"
         style="color:#000000;fill:#000000;stroke:none;stroke-width:0.5;marker:none;visibility:visible;display:inline;overflow:visible;enable-background:accumulate"
         id="path4138"
         sodipodi:cx="100.5"
         sodipodi:cy="682.86218"
         sodipodi:rx="0.5"
         sodipodi:ry="0.5"
         d="m 101,682.86218 c 0,0.27614 -0.22386,0.5 -0.5,0.5 -0.27614,0 -0.5,-0.22386 -0.5,-0.5 0,-0.27614 0.22386,-0.5 0.5,-0.5 0.27614,0 0.5,0.22386 0.5,0.5 z"
         transform="translate(10.03125,-299.78125)" />
      <path
         d="m 101,682.86218 c 0,0.27614 -0.22386,0.5 -0.5,0.5 -0.27614,0 -0.5,-0.22386 -0.5,-0.5 0,-0.27614 0.22386,-0.5 0.5,-0.5 0.27614,0 0.5,0.22386 0.5,0.5 z"
         sodipodi:ry="0.5"
         sodipodi:rx="0.5"
         sodipodi:cy="682.86218"
         sodipodi:cx="100.5"
         id="path4140"
         style="color:#000000;fill:#000000;stroke:none;stroke-width:0.5;marker:none;visibility:visible;display:inline;overflow:visible;enable-background:accumulate"
         sodipodi:type="arc"
         transform="translate(17.9375,-300.375)" />
      <path
         transform="translate(14,-304)"
         sodipodi:type="arc"
         style="color:#000000;fill:#000000;stroke:none;stroke-width:0.5;marker:none;visibility:visible;display:inline;overflow:visible;enable-background:accumulate"
         id="path4142"
         sodipodi:cx="100.5"
         sodipodi:cy="682.86218"
         sodipodi:rx="0.5"
         sodipodi:ry="0.5"
         d="m 101,682.86218 c 0,0.27614 -0.22386,0.5 -0.5,0.5 -0.27614,0 -0.5,-0.22386 -0.5,-0.5 0,-0.27614 0.22386,-0.5 0.5,-0.5 0.27614,0 0.5,0.22386 0.5,0.5 z" />
      <path
         d="m 101,682.86218 c 0,0.27614 -0.22386,0.5 -0.5,0.5 -0.27614,0 -0.5,-0.22386 -0.5,-0.5 0,-0.27614 0.22386,-0.5 0.5,-0.5 0.27614,0 0.5,0.22386 0.5,0.5 z"
         sodipodi:ry="0.5"
         sodipodi:rx="0.5"
         sodipodi:cy="682.86218"
         sodipodi:cx="100.5"
         id="path4144"
         style="color:#000000;fill:#000000;stroke:none;stroke-width:0.5;marker:none;visibility:visible;display:inline;overflow:visible;enable-background:accumulate"
         sodipodi:type="arc"
         transform="translate(14.21875,-296)" />
      <path
         transform="translate(12.71875,-302.21875)"
         sodipodi:type="arc"
         style="color:#000000;fill:#000000;stroke:none;stroke-width:0.5;marker:none;visibility:visible;display:inline;overflow:visible;enable-background:accumulate"
         id="path4146"
         sodipodi:cx="100.5"
         sodipodi:cy="682.86218"
         sodipodi:rx="0.5"
         sodipodi:ry="0.5"
         d="m 101,682.86218 c 0,0.27614 -0.22386,0.5 -0.5,0.5 -0.27614,0 -0.5,-0.22386 -0.5,-0.5 0,-0.27614 0.22386,-0.5 0.5,-0.5 0.27614,0 0.5,0.22386 0.5,0.5 z" />
      <path
         d="m 101,682.86218 c 0,0.27614 -0.22386,0.5 -0.5,0.5 -0.27614,0 -0.5,-0.22386 -0.5,-0.5 0,-0.27614 0.22386,-0.5 0.5,-0.5 0.27614,0 0.5,0.22386 0.5,0.5 z"
         sodipodi:ry="0.5"
         sodipodi:rx="0.5"
         sodipodi:cy="682.86218"
         sodipodi:cx="100.5"
         id="path4148"
         style="color:#000000;fill:#000000;stroke:none;stroke-width:0.5;marker:none;visibility:visible;display:inline;overflow:visible;enable-background:accumulate"
         sodipodi:type="arc"
         transform="translate(15.625,-301.21875)" />
      <path
         transform="translate(16.4375,-297.5)"
         sodipodi:type="arc"
         style="color:#000000;fill:#000000;stroke:none;stroke-width:0.5;marker:none;visibility:visible;display:inline;overflow:visible;enable-background:accumulate"
         id="path4150"
         sodipodi:cx="100.5"
         sodipodi:cy="682.86218"
         sodipodi:rx="0.5"
         sodipodi:ry="0.5"
         d="m 101,682.86218 c 0,0.27614 -0.22386,0.5 -0.5,0.5 -0.27614,0 -0.5,-0.22386 -0.5,-0.5 0,-0.27614 0.22386,-0.5 0.5,-0.5 0.27614,0 0.5,0.22386 0.5,0.5 z" />
      <path
         d="m 101,682.86218 c 0,0.27614 -0.22386,0.5 -0.5,0.5 -0.27614,0 -0.5,-0.22386 -0.5,-0.5 0,-0.27614 0.22386,-0.5 0.5,-0.5 0.27614,0 0.5,0.22386 0.5,0.5 z"
         sodipodi:ry="0.5"
         sodipodi:rx="0.5"
         sodipodi:cy="682.86218"
         sodipodi:cx="100.5"
         id="path4152"
         style="color:#000000;fill:#000000;stroke:none;stroke-width:0.5;marker:none;visibility:visible;display:inline;overflow:visible;enable-background:accumulate"
         sodipodi:type="arc"
         transform="translate(11.9375,-297.625)" />
      <path
         transform="translate(13.03125,-299.71875)"
         sodipodi:type="arc"
         style="color:#000000;fill:#000000;stroke:none;stroke-width:0.5;marker:none;visibility:visible;display:inline;overflow:visible;enable-background:accumulate"
         id="path4154"
         sodipodi:cx="100.5"
         sodipodi:cy="682.86218"
         sodipodi:rx="0.5"
         sodipodi:ry="0.5"
         d="m 101,682.86218 c 0,0.27614 -0.22386,0.5 -0.5,0.5 -0.27614,0 -0.5,-0.22386 -0.5,-0.5 0,-0.27614 0.22386,-0.5 0.5,-0.5 0.27614,0 0.5,0.22386 0.5,0.5 z" />
    </g>
    <g
       id="g4182">
      <path
         style="color:#000000;fill:#000000;stroke:none;stroke-width:2;marker:none;visibility:visible;display:inline;overflow:visible;enable-background:accumulate"
         d="m 24.5,378.86218 90.04688,-0.85937 0.59375,0.35937 0.20312,0.57813 -0.26562,0.53125 -0.5625,0.26562 z"
         id="path4180"
         inkscape:connector-curvature="0" />
    </g>
    <g
       transform="translate(1.625,2.796875)"
       id="g4185">
      <path
         inkscape:connector-curvature="0"
         id="path4187"
         d="m 24.5,378.86218 90.04688,-0.85937 0.59375,0.35937 0.20312,0.57813 -0.26562,0.53125 -0.5625,0.26562 z"
         style="color:#000000;fill:#000000;stroke:none;stroke-width:2;marker:none;visibility:visible;display:inline;overflow:visible;enable-background:accumulate" />
    </g>
    <g
       id="g4189"
       transform="translate(3.921875,3.625)">
      <path
         style="color:#000000;fill:#000000;stroke:none;stroke-width:2;marker:none;visibility:visible;display:inline;overflow:visible;enable-background:accumulate"
         d="m 24.5,378.86218 90.04688,-0.85937 0.59375,0.35937 0.20312,0.57813 -0.26562,0.53125 -0.5625,0.26562 z"
         id="path4191"
         inkscape:connector-curvature="0" />
    </g>
    <g
       transform="translate(-1.28125,1.78125)"
       id="g4193">
      <path
         inkscape:connector-curvature="0"
         id="path4195"
         d="m 24.5,378.86218 90.04688,-0.85937 0.59375,0.35937 0.20312,0.57813 -0.26562,0.53125 -0.5625,0.26562 z"
         style="color:#000000;fill:#000000;stroke:none;stroke-width:2;marker:none;visibility:visible;display:inline;overflow:visible;enable-background:accumulate" />
    </g>
    <g
       id="g4197"
       transform="translate(-3.96875,4.234375)">
      <path
         style="color:#000000;fill:#000000;stroke:none;stroke-width:2;marker:none;visibility:visible;display:inline;overflow:visible;enable-background:accumulate"
         d="m 24.5,378.86218 90.04688,-0.85937 0.59375,0.35937 0.20312,0.57813 -0.26562,0.53125 -0.5625,0.26562 z"
         id="path4199"
         inkscape:connector-curvature="0" />
    </g>
    <g
       transform="translate(-0.96875,4.3125)"
       id="g4201">
      <path
         inkscape:connector-curvature="0"
         id="path4203"
         d="m 24.5,378.86218 90.04688,-0.85937 0.59375,0.35937 0.20312,0.57813 -0.26562,0.53125 -0.5625,0.26562 z"
         style="color:#000000;fill:#000000;stroke:none;stroke-width:2;marker:none;visibility:visible;display:inline;overflow:visible;enable-background:accumulate" />
    </g>
    <g
       id="g4205"
       transform="translate(2.4375,6.5)">
      <path
         style="color:#000000;fill:#000000;stroke:none;stroke-width:2;marker:none;visibility:visible;display:inline;overflow:visible;enable-background:accumulate"
         d="m 24.5,378.86218 90.04688,-0.85937 0.59375,0.35937 0.20312,0.57813 -0.26562,0.53125 -0.5625,0.26562 z"
         id="path4207"
         inkscape:connector-curvature="0" />
    </g>
    <g
       transform="translate(-2.046875,6.375)"
       id="g4209">
      <path
         inkscape:connector-curvature="0"
         id="path4211"
         d="m 24.5,378.86218 90.04688,-0.85937 0.59375,0.35937 0.20312,0.57813 -0.26562,0.53125 -0.5625,0.26562 z"
         style="color:#000000;fill:#000000;stroke:none;stroke-width:2;marker:none;visibility:visible;display:inline;overflow:visible;enable-background:accumulate" />
    </g>
    <g
       id="g4213"
       transform="translate(0.203125,8.046875)">
      <path
         style="color:#000000;fill:#000000;stroke:none;stroke-width:2;marker:none;visibility:visible;display:inline;overflow:visible;enable-background:accumulate"
         d="m 24.5,378.86218 90.04688,-0.85937 0.59375,0.35937 0.20312,0.57813 -0.26562,0.53125 -0.5625,0.26562 z"
         id="path4215"
         inkscape:connector-curvature="0" />
    </g>
    <g
       id="g4217"
       transform="matrix(0.5,0,0,0.5,12.25,176.43109)">
      <path
         sodipodi:type="arc"
         style="color:#000000;fill:none;stroke:#ff0000;stroke-width:1.11111104;stroke-miterlimit:4;stroke-dasharray:none;marker:none;visibility:visible;display:inline;overflow:visible;enable-background:accumulate"
         id="path4219"
         sodipodi:cx="105"
         sodipodi:cy="682.36218"
         sodipodi:rx="5"
         sodipodi:ry="5"
         d="m 110,682.36218 c 0,2.76143 -2.23858,5 -5,5 -2.76142,0 -5,-2.23857 -5,-5 0,-2.76142 2.23858,-5 5,-5 2.76142,0 5,2.23858 5,5 z"
         transform="matrix(0.9,0,0,0.9,-70,-231.26378)" />
      <path
         sodipodi:type="arc"
         style="color:#000000;fill:#000000;stroke:none;stroke-width:0.5;marker:none;visibility:visible;display:inline;overflow:visible;enable-background:accumulate"
         id="path4221"
         sodipodi:cx="100.5"
         sodipodi:cy="682.86218"
         sodipodi:rx="0.5"
         sodipodi:ry="0.5"
         d="m 101,682.86218 c 0,0.27614 -0.22386,0.5 -0.5,0.5 -0.27614,0 -0.5,-0.22386 -0.5,-0.5 0,-0.27614 0.22386,-0.5 0.5,-0.5 0.27614,0 0.5,0.22386 0.5,0.5 z"
         transform="translate(-79.96875,-299.78125)" />
      <path
         d="m 101,682.86218 c 0,0.27614 -0.22386,0.5 -0.5,0.5 -0.27614,0 -0.5,-0.22386 -0.5,-0.5 0,-0.27614 0.22386,-0.5 0.5,-0.5 0.27614,0 0.5,0.22386 0.5,0.5 z"
         sodipodi:ry="0.5"
         sodipodi:rx="0.5"
         sodipodi:cy="682.86218"
         sodipodi:cx="100.5"
         id="path4223"
         style="color:#000000;fill:#000000;stroke:none;stroke-width:0.5;marker:none;visibility:visible;display:inline;overflow:visible;enable-background:accumulate"
         sodipodi:type="arc"
         transform="translate(-72.0625,-300.375)" />
      <path
         transform="translate(-76,-304)"
         sodipodi:type="arc"
         style="color:#000000;fill:#000000;stroke:none;stroke-width:0.5;marker:none;visibility:visible;display:inline;overflow:visible;enable-background:accumulate"
         id="path4225"
         sodipodi:cx="100.5"
         sodipodi:cy="682.86218"
         sodipodi:rx="0.5"
         sodipodi:ry="0.5"
         d="m 101,682.86218 c 0,0.27614 -0.22386,0.5 -0.5,0.5 -0.27614,0 -0.5,-0.22386 -0.5,-0.5 0,-0.27614 0.22386,-0.5 0.5,-0.5 0.27614,0 0.5,0.22386 0.5,0.5 z" />
      <path
         d="m 101,682.86218 c 0,0.27614 -0.22386,0.5 -0.5,0.5 -0.27614,0 -0.5,-0.22386 -0.5,-0.5 0,-0.27614 0.22386,-0.5 0.5,-0.5 0.27614,0 0.5,0.22386 0.5,0.5 z"
         sodipodi:ry="0.5"
         sodipodi:rx="0.5"
         sodipodi:cy="682.86218"
         sodipodi:cx="100.5"
         id="path4227"
         style="color:#000000;fill:#000000;stroke:none;stroke-width:0.5;marker:none;visibility:visible;display:inline;overflow:visible;enable-background:accumulate"
         sodipodi:type="arc"
         transform="translate(-75.78125,-296)" />
      <path
         transform="translate(-77.28125,-302.21875)"
         sodipodi:type="arc"
         style="color:#000000;fill:#000000;stroke:none;stroke-width:0.5;marker:none;visibility:visible;display:inline;overflow:visible;enable-background:accumulate"
         id="path4229"
         sodipodi:cx="100.5"
         sodipodi:cy="682.86218"
         sodipodi:rx="0.5"
         sodipodi:ry="0.5"
         d="m 101,682.86218 c 0,0.27614 -0.22386,0.5 -0.5,0.5 -0.27614,0 -0.5,-0.22386 -0.5,-0.5 0,-0.27614 0.22386,-0.5 0.5,-0.5 0.27614,0 0.5,0.22386 0.5,0.5 z" />
      <path
         d="m 101,682.86218 c 0,0.27614 -0.22386,0.5 -0.5,0.5 -0.27614,0 -0.5,-0.22386 -0.5,-0.5 0,-0.27614 0.22386,-0.5 0.5,-0.5 0.27614,0 0.5,0.22386 0.5,0.5 z"
         sodipodi:ry="0.5"
         sodipodi:rx="0.5"
         sodipodi:cy="682.86218"
         sodipodi:cx="100.5"
         id="path4231"
         style="color:#000000;fill:#000000;stroke:none;stroke-width:0.5;marker:none;visibility:visible;display:inline;overflow:visible;enable-background:accumulate"
         sodipodi:type="arc"
         transform="translate(-74.375,-301.21875)" />
      <path
         transform="translate(-73.5625,-297.5)"
         sodipodi:type="arc"
         style="color:#000000;fill:#000000;stroke:none;stroke-width:0.5;marker:none;visibility:visible;display:inline;overflow:visible;enable-background:accumulate"
         id="path4233"
         sodipodi:cx="100.5"
         sodipodi:cy="682.86218"
         sodipodi:rx="0.5"
         sodipodi:ry="0.5"
         d="m 101,682.86218 c 0,0.27614 -0.22386,0.5 -0.5,0.5 -0.27614,0 -0.5,-0.22386 -0.5,-0.5 0,-0.27614 0.22386,-0.5 0.5,-0.5 0.27614,0 0.5,0.22386 0.5,0.5 z" />
      <path
         d="m 101,682.86218 c 0,0.27614 -0.22386,0.5 -0.5,0.5 -0.27614,0 -0.5,-0.22386 -0.5,-0.5 0,-0.27614 0.22386,-0.5 0.5,-0.5 0.27614,0 0.5,0.22386 0.5,0.5 z"
         sodipodi:ry="0.5"
         sodipodi:rx="0.5"
         sodipodi:cy="682.86218"
         sodipodi:cx="100.5"
         id="path4235"
         style="color:#000000;fill:#000000;stroke:none;stroke-width:0.5;marker:none;visibility:visible;display:inline;overflow:visible;enable-background:accumulate"
         sodipodi:type="arc"
         transform="translate(-78.0625,-297.625)" />
      <path
         transform="translate(-76.96875,-299.71875)"
         sodipodi:type="arc"
         style="color:#000000;fill:#000000;stroke:none;stroke-width:0.5;marker:none;visibility:visible;display:inline;overflow:visible;enable-background:accumulate"
         id="path4237"
         sodipodi:cx="100.5"
         sodipodi:cy="682.86218"
         sodipodi:rx="0.5"
         sodipodi:ry="0.5"
         d="m 101,682.86218 c 0,0.27614 -0.22386,0.5 -0.5,0.5 -0.27614,0 -0.5,-0.22386 -0.5,-0.5 0,-0.27614 0.22386,-0.5 0.5,-0.5 0.27614,0 0.5,0.22386 0.5,0.5 z" />
    </g>
    <g
       id="g4239"
       transform="translate(0,-15)">
      <path
         transform="matrix(0.9,0,0,0.9,20,-231.26378)"
         d="m 110,682.36218 c 0,2.76143 -2.23858,5 -5,5 -2.76142,0 -5,-2.23857 -5,-5 0,-2.76142 2.23858,-5 5,-5 2.76142,0 5,2.23858 5,5 z"
         sodipodi:ry="5"
         sodipodi:rx="5"
         sodipodi:cy="682.36218"
         sodipodi:cx="105"
         id="path4241"
         style="color:#000000;fill:none;stroke:#ff0000;stroke-width:0.55555552;stroke-miterlimit:4;stroke-dasharray:none;marker:none;visibility:visible;display:inline;overflow:visible;enable-background:accumulate"
         sodipodi:type="arc" />
      <path
         transform="translate(10.03125,-299.78125)"
         d="m 101,682.86218 c 0,0.27614 -0.22386,0.5 -0.5,0.5 -0.27614,0 -0.5,-0.22386 -0.5,-0.5 0,-0.27614 0.22386,-0.5 0.5,-0.5 0.27614,0 0.5,0.22386 0.5,0.5 z"
         sodipodi:ry="0.5"
         sodipodi:rx="0.5"
         sodipodi:cy="682.86218"
         sodipodi:cx="100.5"
         id="path4243"
         style="color:#000000;fill:#000000;stroke:none;stroke-width:0.5;marker:none;visibility:visible;display:inline;overflow:visible;enable-background:accumulate"
         sodipodi:type="arc" />
      <path
         transform="translate(17.9375,-300.375)"
         sodipodi:type="arc"
         style="color:#000000;fill:#000000;stroke:none;stroke-width:0.5;marker:none;visibility:visible;display:inline;overflow:visible;enable-background:accumulate"
         id="path4245"
         sodipodi:cx="100.5"
         sodipodi:cy="682.86218"
         sodipodi:rx="0.5"
         sodipodi:ry="0.5"
         d="m 101,682.86218 c 0,0.27614 -0.22386,0.5 -0.5,0.5 -0.27614,0 -0.5,-0.22386 -0.5,-0.5 0,-0.27614 0.22386,-0.5 0.5,-0.5 0.27614,0 0.5,0.22386 0.5,0.5 z" />
      <path
         d="m 101,682.86218 c 0,0.27614 -0.22386,0.5 -0.5,0.5 -0.27614,0 -0.5,-0.22386 -0.5,-0.5 0,-0.27614 0.22386,-0.5 0.5,-0.5 0.27614,0 0.5,0.22386 0.5,0.5 z"
         sodipodi:ry="0.5"
         sodipodi:rx="0.5"
         sodipodi:cy="682.86218"
         sodipodi:cx="100.5"
         id="path4247"
         style="color:#000000;fill:#000000;stroke:none;stroke-width:0.5;marker:none;visibility:visible;display:inline;overflow:visible;enable-background:accumulate"
         sodipodi:type="arc"
         transform="translate(14,-304)" />
      <path
         transform="translate(14.21875,-296)"
         sodipodi:type="arc"
         style="color:#000000;fill:#000000;stroke:none;stroke-width:0.5;marker:none;visibility:visible;display:inline;overflow:visible;enable-background:accumulate"
         id="path4249"
         sodipodi:cx="100.5"
         sodipodi:cy="682.86218"
         sodipodi:rx="0.5"
         sodipodi:ry="0.5"
         d="m 101,682.86218 c 0,0.27614 -0.22386,0.5 -0.5,0.5 -0.27614,0 -0.5,-0.22386 -0.5,-0.5 0,-0.27614 0.22386,-0.5 0.5,-0.5 0.27614,0 0.5,0.22386 0.5,0.5 z" />
      <path
         d="m 101,682.86218 c 0,0.27614 -0.22386,0.5 -0.5,0.5 -0.27614,0 -0.5,-0.22386 -0.5,-0.5 0,-0.27614 0.22386,-0.5 0.5,-0.5 0.27614,0 0.5,0.22386 0.5,0.5 z"
         sodipodi:ry="0.5"
         sodipodi:rx="0.5"
         sodipodi:cy="682.86218"
         sodipodi:cx="100.5"
         id="path4251"
         style="color:#000000;fill:#000000;stroke:none;stroke-width:0.5;marker:none;visibility:visible;display:inline;overflow:visible;enable-background:accumulate"
         sodipodi:type="arc"
         transform="translate(12.71875,-302.21875)" />
      <path
         transform="translate(15.625,-301.21875)"
         sodipodi:type="arc"
         style="color:#000000;fill:#000000;stroke:none;stroke-width:0.5;marker:none;visibility:visible;display:inline;overflow:visible;enable-background:accumulate"
         id="path4253"
         sodipodi:cx="100.5"
         sodipodi:cy="682.86218"
         sodipodi:rx="0.5"
         sodipodi:ry="0.5"
         d="m 101,682.86218 c 0,0.27614 -0.22386,0.5 -0.5,0.5 -0.27614,0 -0.5,-0.22386 -0.5,-0.5 0,-0.27614 0.22386,-0.5 0.5,-0.5 0.27614,0 0.5,0.22386 0.5,0.5 z" />
      <path
         d="m 101,682.86218 c 0,0.27614 -0.22386,0.5 -0.5,0.5 -0.27614,0 -0.5,-0.22386 -0.5,-0.5 0,-0.27614 0.22386,-0.5 0.5,-0.5 0.27614,0 0.5,0.22386 0.5,0.5 z"
         sodipodi:ry="0.5"
         sodipodi:rx="0.5"
         sodipodi:cy="682.86218"
         sodipodi:cx="100.5"
         id="path4255"
         style="color:#000000;fill:#000000;stroke:none;stroke-width:0.5;marker:none;visibility:visible;display:inline;overflow:visible;enable-background:accumulate"
         sodipodi:type="arc"
         transform="translate(16.4375,-297.5)" />
      <path
         transform="translate(11.9375,-297.625)"
         sodipodi:type="arc"
         style="color:#000000;fill:#000000;stroke:none;stroke-width:0.5;marker:none;visibility:visible;display:inline;overflow:visible;enable-background:accumulate"
         id="path4257"
         sodipodi:cx="100.5"
         sodipodi:cy="682.86218"
         sodipodi:rx="0.5"
         sodipodi:ry="0.5"
         d="m 101,682.86218 c 0,0.27614 -0.22386,0.5 -0.5,0.5 -0.27614,0 -0.5,-0.22386 -0.5,-0.5 0,-0.27614 0.22386,-0.5 0.5,-0.5 0.27614,0 0.5,0.22386 0.5,0.5 z" />
      <path
         d="m 101,682.86218 c 0,0.27614 -0.22386,0.5 -0.5,0.5 -0.27614,0 -0.5,-0.22386 -0.5,-0.5 0,-0.27614 0.22386,-0.5 0.5,-0.5 0.27614,0 0.5,0.22386 0.5,0.5 z"
         sodipodi:ry="0.5"
         sodipodi:rx="0.5"
         sodipodi:cy="682.86218"
         sodipodi:cx="100.5"
         id="path4259"
         style="color:#000000;fill:#000000;stroke:none;stroke-width:0.5;marker:none;visibility:visible;display:inline;overflow:visible;enable-background:accumulate"
         sodipodi:type="arc"
         transform="translate(13.03125,-299.71875)" />
    </g>
    <path
       inkscape:transform-center-y="0.561935"
       style="color:#000000;fill:#000000;stroke:none;stroke-width:2;marker:none;visibility:visible;display:inline;overflow:visible;enable-background:accumulate"
       d="m 24.522045,350.86188 90.005555,-2.8599 0.60159,0.34609 0.21591,0.57348 -0.25375,0.53702 -0.55646,0.27805 z"
       id="path4263"
       inkscape:connector-curvature="0"
       inkscape:transform-center-x="44.566428" />
    <path
       inkscape:transform-center-y="0.11902"
       inkscape:transform-center-x="44.267605"
       inkscape:connector-curvature="0"
       id="path4335"
       d="m 23.85059,351.74136 89.40971,-1.97344 0.5941,0.352 0.20891,0.57557 -0.25715,0.53449 -0.55528,0.27257 z"
       style="color:#000000;fill:#000000;stroke:none;stroke-width:2;marker:none;visibility:visible;display:inline;overflow:visible;enable-background:accumulate" />
    <path
       inkscape:transform-center-y="-0.00021"
       style="color:#000000;fill:#000000;stroke:none;stroke-width:2;marker:none;visibility:visible;display:inline;overflow:visible;enable-background:accumulate"
       d="m 25.298852,352.25054 90.859968,-1.46677 0.60155,0.35535 0.20883,0.57675 -0.26448,0.53302 -0.56584,0.26941 z"
       id="path4337"
       inkscape:connector-curvature="0"
       inkscape:transform-center-x="44.983282" />
    <path
       inkscape:transform-center-y="-7e-05"
       inkscape:transform-center-x="45.544037"
       inkscape:connector-curvature="0"
       id="path4339"
       d="m 26.468954,352.68865 91.996256,-1.06094 0.60741,0.35804 0.20878,0.57767 -0.27021,0.53184 -0.57411,0.26688 z"
       style="color:#000000;fill:#000000;stroke:none;stroke-width:2;marker:none;visibility:visible;display:inline;overflow:visible;enable-background:accumulate" />
    <path
       inkscape:transform-center-y="2.5e-05"
       style="color:#000000;fill:#000000;stroke:none;stroke-width:2;marker:none;visibility:visible;display:inline;overflow:visible;enable-background:accumulate"
       d="m 22.500043,352.97044 88.080657,-0.78009 0.58046,0.35989 0.19816,0.57831 -0.2603,0.53102 -0.55045,0.26512 z"
       id="path4341"
       inkscape:connector-curvature="0"
       inkscape:transform-center-x="43.604376" />
    <path
       inkscape:transform-center-y="3.5e-05"
       inkscape:transform-center-x="44.348113"
       inkscape:connector-curvature="0"
       id="path4343"
       d="m 24.015686,353.03098 89.583124,-0.7625 0.5903,0.36002 0.20144,0.57834 -0.26482,0.53096 -0.55989,0.26503 z"
       style="color:#000000;fill:#000000;stroke:none;stroke-width:2;marker:none;visibility:visible;display:inline;overflow:visible;enable-background:accumulate" />
    <path
       inkscape:transform-center-y="-0.161825"
       style="color:#000000;fill:#000000;stroke:none;stroke-width:2;marker:none;visibility:visible;display:inline;overflow:visible;enable-background:accumulate"
       d="m 23.476722,354.0384 89.012748,0.32447 0.58208,0.36716 0.19307,0.58074 -0.2696,0.52771 -0.5595,0.25821 z"
       id="path4345"
       inkscape:connector-curvature="0"
       inkscape:transform-center-x="44.06093" />
    <path
       inkscape:transform-center-y="-0.201225"
       inkscape:transform-center-x="45.172285"
       inkscape:connector-curvature="0"
       id="path4347"
       d="m 25.727589,354.11584 91.258101,0.40333 0.59668,0.36767 0.19784,0.58091 -0.27651,0.52748 -0.57367,0.25772 z"
       style="color:#000000;fill:#000000;stroke:none;stroke-width:2;marker:none;visibility:visible;display:inline;overflow:visible;enable-background:accumulate" />
    <path
       inkscape:transform-center-y="-0.571725"
       style="color:#000000;fill:#000000;stroke:none;stroke-width:2;marker:none;visibility:visible;display:inline;overflow:visible;enable-background:accumulate"
       d="m 24.678695,354.87485 90.121155,1.14484 0.58613,0.3725 0.19039,0.5825 -0.2776,0.52521 -0.56875,0.25304 z"
       id="path4349"
       inkscape:connector-curvature="0"
       inkscape:transform-center-x="44.606124" />
    <path
       style="color:#000000;fill:#00ffff;stroke:#d40000;stroke-width:1;marker:none;visibility:visible;display:inline;overflow:visible;enable-background:accumulate;stroke-miterlimit:4;stroke-dasharray:none"
       d="M 797.03125,202.375 C 692.46219,204.60793 703.83382,482.56026 546.21875,485.28125 524.50132,484.86204 499.65814,479.3433 471,467.375 c 10.01026,4.46982 19.565,8.1107 28.6875,11.0625 -10.01827,-2.7818 -20.5582,-6.41465 -31.6875,-11.0625 7.47611,3.33826 14.67935,6.20388 21.65625,8.6875 -7.58082,-2.39817 -15.46821,-5.26798 -23.65625,-8.6875 15.95967,7.12637 30.75364,12.20997 44.5,15.5625 -12.87609,-2.92665 -26.67705,-7.37209 -41.5,-13.5625 3.96208,1.76916 7.83595,3.41146 11.65625,4.9375 -1.86788,-0.68279 -3.75395,-1.38427 -5.65625,-2.125 -0.36447,-0.1493 -0.72803,-0.28609 -1.09375,-0.4375 -1.94565,-0.76647 -3.9243,-1.54729 -5.90625,-2.375 4.77734,2.1332 9.42826,4.06298 14,5.84375 8.50926,3.49286 16.68986,6.39651 24.53125,8.75 C 495.9638,481.13197 484.81724,477.31015 473,472.375 c 7.47611,3.33826 14.67935,6.20388 21.65625,8.6875 -7.58082,-2.39817 -15.46821,-5.26798 -23.65625,-8.6875 32.97973,14.72624 60.9742,20.88395 85.03125,20.53125 158.46186,0.0615 147.44314,-280.69415 251.8125,-283.9375 7.4384,0.0201 15.46131,1.41579 24.15625,4.40625 -2.97869,-1.16665 -5.86035,-2.15196 -8.6875,-2.96875 3.4426,0.71344 7.00991,1.70391 10.6875,2.96875 -6.21805,-2.4354 -12.08102,-4.11784 -17.65625,-5.0625 5.56677,0.5902 11.43098,1.92144 17.65625,4.0625 -21.63308,-8.47295 -39.17048,-7.52734 -54.03125,0.0937 -0.0507,0.0236 -0.10563,0.0388 -0.15625,0.0625 -0.17736,0.0916 -0.35466,0.18776 -0.53125,0.28125 -0.99884,0.48079 -1.99355,0.99147 -2.96875,1.53125 8.25957,-5.09421 17.33465,-8.05813 27.53125,-8.375 7.71855,-0.10902 16.07053,1.28139 25.15625,4.40625 -1.82546,-0.71497 -3.60699,-1.35497 -5.375,-1.9375 2.08251,0.55143 4.20998,1.19288 6.375,1.9375 -10.70794,-4.19394 -20.40767,-6.08776 -29.28125,-6 1.41114,-0.17397 2.82578,-0.30815 4.28125,-0.375 6.82649,0.26041 14.13859,1.67122 22,4.375 -2.97869,-1.16665 -5.86035,-2.15196 -8.6875,-2.96875 3.4426,0.71344 7.00991,1.70391 10.6875,2.96875 -3.66061,-1.43374 -7.19197,-2.62343 -10.625,-3.53125 4.35174,0.72134 8.88675,1.90162 13.625,3.53125 -11.18745,-4.38175 -21.27524,-6.24455 -30.46875,-5.96875 -0.94403,-0.0189 -1.88687,-0.0248 -2.8125,0 -0.56112,-0.004 -1.13294,-0.0431 -1.6875,-0.0312 z"
       id="path4351"
       inkscape:connector-curvature="0" />
    <path
       sodipodi:nodetypes="cc"
       inkscape:connector-curvature="0"
       id="path4353"
       d="m -75,372.36218 c 20,-10 20,10 0,0 z"
       style="color:#000000;fill:#000000;fill-opacity:1;fill-rule:nonzero;stroke:none;stroke-width:1;marker:none;visibility:visible;display:inline;overflow:visible;enable-background:accumulate" />
    <path
       style="color:#000000;fill:#000000;fill-opacity:1;fill-rule:nonzero;stroke:none;stroke-width:1;marker:none;visibility:visible;display:inline;overflow:visible;enable-background:accumulate"
       d="m -140.25,418.36218 c 20,-10 20,10 0,0 z"
       id="path4355"
       inkscape:connector-curvature="0"
       sodipodi:nodetypes="cc" />
    <path
       style="color:#000000;fill:#000000;fill-opacity:1;fill-rule:nonzero;stroke:none;stroke-width:1;marker:none;visibility:visible"
       id="path6774"
       d="m -66,422.86218 c 7.847496,-3.92375 12.615832,-3.22876 14.305009,-1.53958 l 70.710678,70.71068 c -1.689177,-1.68918 -6.457513,-2.38417 -14.3050089,1.53958 z"
       inkscape:connector-curvature="0" />
    <path
       style="color:#000000;fill:#000000;fill-opacity:1;fill-rule:nonzero;stroke:none;stroke-width:1;marker:none;visibility:visible"
       id="path6776"
       d="m -51.694991,421.3226 c 2.615832,2.61583 -2.152505,7.61583 -14.305009,1.53958 l 70.7106781,70.71068 c 12.1525039,6.07625 16.9208409,1.07625 14.3050089,-1.53958 z"
       inkscape:connector-curvature="0" />
    <path
       style="color:#000000;fill:#000000;fill-opacity:1;fill-rule:nonzero;stroke:none;stroke-width:1;marker:none;visibility:visible;display:inline;overflow:visible;enable-background:accumulate"
       id="path6975"
       d="m -184.95561,457.29109 c -3.40891,2.87023 -6.69385,5.88468 -9.83465,9.04525 -3.33085,3.17384 -6.40196,6.58618 -9.45283,10.02399 -3.31986,3.41734 -6.36275,7.06717 -9.25931,10.84438 -3.29498,4.36089 -5.69728,9.28737 -8.02823,14.20534 -2.54046,5.652 -4.89469,11.38226 -7.11277,17.16766 -2.36498,6.63949 -4.85575,13.23283 -7.17218,19.88963 -2.25719,6.44775 -4.03498,13.04812 -5.70097,19.6691 -1.27996,5.2196 -2.4999,10.45929 -3.27012,15.78078 -0.51358,3.8642 -0.74597,7.75041 -0.13029,11.60992 0.29358,2.49078 1.38044,4.28896 3.25021,5.86704 1.68247,1.25237 3.51735,2.00092 5.56534,2.37643 2.00017,0.36586 3.90874,0.22829 5.80538,-0.48553 4.5936,-3.11735 0.37945,-0.22761 -10.97671,6.19238 -0.35256,0.19931 0.68652,-0.4301 1.02275,-0.65587 1.28381,-0.86206 2.55007,-1.75121 3.83492,-2.61239 7.18855,-4.81819 14.63957,-9.29342 22.48955,-12.94836 4.04691,-1.73373 8.08348,-3.46835 12.19886,-5.03184 4.27475,-1.68294 8.52272,-3.43093 12.71865,-5.30221 5.65226,-2.30668 21.60258,-11.77902 -1.24279,1.29321 2.65654,-1.52134 5.13651,-3.20864 7.16607,-5.51257 2.14884,-2.84894 2.96957,-6.36773 3.67797,-9.79902 0.47045,-3.47782 0.21509,-6.98639 -0.22512,-10.45005 -0.35308,-3.28573 -0.77542,-6.56733 -1.53422,-9.78689 -0.612,-2.75914 -1.42603,-5.46769 -2.48283,-8.08841 -0.78217,-2.14246 -1.81691,-4.1304 -3.09018,-6.01177 -0.96409,-1.42814 -2.349,-2.36381 -3.64438,-3.44113 -1.39007,-0.81202 -2.72729,-1.72948 -4.162,-2.47201 -1.77936,-0.78056 -3.59801,-1.44903 -5.43221,-2.092 -1.79558,-0.61165 -3.52578,-0.82837 -5.28164,-0.0458 -4.81424,3.09091 2.33364,-1.51832 11.06412,-6.2113 0.38088,-0.20474 -0.67411,0.54659 -0.9673,0.86445 -0.32267,0.34982 -0.6138,0.73066 -0.87247,1.13015 -0.7526,1.16234 -1.0013,1.88749 -1.5492,3.15731 -1.58322,4.40832 -2.15231,9.05574 -2.54122,13.69501 -0.34843,4.98705 -0.343,9.9888 -0.36124,14.98516 -0.0154,4.52869 -0.0357,9.04881 0.28466,13.56754 0.10568,4.77402 1.36543,9.35085 2.64472,13.91127 1.33575,4.55342 2.7746,9.09617 4.95275,13.32259 1.92154,3.556 4.78305,6.34698 7.74709,9.02256 2.06881,1.92244 4.3796,3.57318 6.86552,4.90933 1.70203,0.84072 3.32298,1.63189 5.20996,1.93982 2.01342,0.30794 3.76213,-0.58457 5.37414,-1.68572 -21.03426,12.15218 -13.15847,8.58819 -9.48367,4.74493 1.35569,-1.41784 2.49984,-3.00161 3.67471,-4.56715 2.90217,-3.75616 5.44897,-7.77394 7.81848,-11.88219 2.84615,-4.86859 4.88025,-10.09708 6.73459,-15.40224 2.26427,-6.52283 3.62271,-13.30639 4.96666,-20.06408 1.39951,-6.90868 1.83484,-13.95026 2.08047,-20.9786 0.14031,-4.90904 -0.0529,-9.85821 -0.72905,-14.72632 -0.11551,-0.70434 -0.85481,-5.36817 -1.60126,-5.43142 0.86985,5.51905 -0.20186,0.39796 12.41732,-6.17822 0.31955,-0.16653 -0.4149,0.59131 -0.58567,0.90861 -0.81735,1.51865 -1.26471,3.19563 -1.74058,4.83988 -1.52853,5.56508 -2.78137,11.17987 -3.80229,16.85784 -1.34484,7.79143 -1.60194,15.70419 -1.80926,23.59017 -0.35003,9.20006 0.0862,18.38861 0.70955,27.56489 0.69615,8.77054 1.87043,17.497 3.45158,26.14983 1.10906,6.7485 3.29613,13.14593 6.61856,19.10703 2.51254,4.78085 6.42601,7.96961 10.71472,11.05234 4.40894,2.75675 9.28512,4.70276 14.19758,6.36096 5.19474,1.84746 10.77557,1.9219 16.226587,2.04659 5.684762,0.36475 11.244643,-0.29172 16.76113,-1.6094 2.565646,-0.67942 5.074735,-1.51141 7.457724,-2.68831 0.725402,-0.35826 2.837344,-1.55595 2.135839,-1.15291 -11.900325,6.83726 -13.726922,8.19355 -8.560763,4.60767 3.831594,-2.82266 6.51355,-6.58498 8.380602,-10.90931 2.193253,-5.3911 1.803275,-11.13179 1.307295,-16.79123 -0.781989,-8.19155 -2.793103,-16.19698 -4.737774,-24.17276 -1.684504,-5.54926 -2.637994,-11.40913 -5.125599,-16.68525 0.223021,-2.10421 -1.312886,0.16578 -0.998574,0.004 4.149574,-2.137 8.05181,-4.74114 12.241668,-6.79804 0.384042,-0.18853 -0.46185,0.72254 -0.649348,1.10709 -0.251128,0.51505 -0.442422,1.05718 -0.663633,1.58577 -1.493934,4.28139 -2.713583,8.65034 -3.946222,13.01218 -1.464699,5.63047 -2.463472,11.37843 -2.854739,17.18221 -0.407506,5.91853 0.350067,11.77363 1.296862,17.59882 0.958301,5.29161 2.230708,10.49175 4.03764,15.55648 1.494834,4.0189 3.30999,7.89575 5.641093,11.49542 1.453688,1.9667 2.969295,4.08232 5.258616,5.10268 0.727195,0.0784 0.463129,0.21872 0.843141,-0.30636 -4.186822,2.38802 -8.294378,4.92072 -12.560467,7.16407 -0.184143,0.0968 0.112731,-0.40707 0.1064,-0.61502 -0.02245,-0.73736 -0.366425,-2.30953 -0.489968,-2.94282 -1.041439,-4.36053 -2.386811,-8.63407 -3.579593,-12.95323 -0.455517,-1.70888 -0.639583,-2.54922 -1.214294,-4.17334 -2.399064,-6.7797 -4.158516,-0.84882 11.991985,-8.5571 -0.134327,2.69391 -0.466319,5.37192 -0.677914,8.06016 -0.204107,1.68542 -0.582574,3.34812 -0.972804,4.99921 0,0 -13.428903,6.38719 -13.428903,6.38719 l 0,0 c 0.509705,-1.54962 0.695689,-3.18782 1.141133,-4.7597 0.208522,-2.68151 0.611221,-5.35758 0.622252,-8.04648 12.105921,-7.33045 11.595635,-12.76481 13.701746,-6.64781 0.649099,1.88525 1.318508,3.76504 1.719444,5.72529 1.224827,4.33122 2.544609,8.63235 3.705774,12.98155 0.04523,0.18793 0.961745,4.29727 0.946091,4.30877 -8.340415,6.12607 -8.777399,10.10968 -14.296104,7.5173 -2.332029,-1.41576 -4.022632,-3.58936 -5.557499,-5.81265 -2.342229,-3.72184 -4.198972,-7.70437 -5.733906,-11.82507 -1.830517,-5.15248 -3.11345,-10.43998 -4.099157,-15.81807 -1.006728,-5.92038 -1.796909,-11.87005 -1.430539,-17.89423 0.278439,-5.88601 1.289306,-11.7065 2.655082,-17.43553 1.213896,-4.38039 2.432802,-8.75199 3.777834,-13.09376 0.196492,-0.54276 0.39975,-1.08312 0.589475,-1.62828 0.158796,-0.45629 0.05955,-1.09966 0.455992,-1.3758 2.765043,-1.92591 11.84669,-12.72162 15.312549,-6.36135 2.26316,5.49588 3.267649,11.40907 4.897634,17.10388 1.951747,8.02774 4.081327,16.05371 4.980481,24.2848 0.561439,5.81646 1.141222,11.72876 -0.878443,17.35656 -1.724245,4.54455 -4.260627,8.56427 -8.07355,11.66827 -7.860709,5.97828 -16.692872,11.07465 -26.31002,13.48962 -5.600273,1.18951 -11.245906,1.64871 -16.973826,1.31518 -5.57075,-0.16787 -11.2248,-0.43815 -16.50541,-2.40144 -4.99669,-1.7865 -10.00017,-3.75394 -14.43218,-6.71687 -4.38747,-3.18585 -8.47993,-6.71533 -11.01263,-11.62536 -3.35148,-6.12944 -5.60357,-12.67958 -6.70718,-19.5955 -1.58775,-8.714 -2.72425,-17.50297 -3.45675,-26.33101 -0.61842,-9.20697 -1.14918,-18.4265 -0.81348,-27.65897 0.16717,-7.9243 0.35585,-15.87367 1.5822,-23.72035 0.97608,-5.68685 2.15584,-11.31033 3.60414,-16.89726 1.4101,-5.94231 6.08202,-20.29571 15.87676,-13.79903 1.4688,1.75086 1.54437,4.2861 1.97148,6.4375 0.68288,4.96881 0.76472,10.03779 0.67219,15.04386 -0.28379,7.0972 -0.66648,14.2191 -2.02481,21.20682 -1.33498,6.794 -2.63379,13.62456 -4.81146,20.21052 -1.82232,5.36169 -3.74532,10.67543 -6.5551,15.61754 -2.32577,4.15174 -4.81895,8.23493 -7.69873,12.02735 -6.26501,8.47726 -6.7502,8.51326 -19.23814,14.99051 -1.93228,0.9291 -3.92848,1.37374 -6.05555,0.83303 -1.92918,-0.50665 -3.6664,-1.41423 -5.427,-2.33735 -2.50737,-1.48941 -4.86782,-3.20816 -6.97101,-5.23731 -3.05182,-2.82567 -5.98391,-5.79367 -7.96182,-9.50433 -2.20889,-4.31974 -3.71837,-8.94223 -5.08155,-13.5908 -1.28766,-4.64662 -2.68568,-9.29464 -2.79837,-14.15968 -0.34654,-4.55528 -0.39513,-9.10767 -0.31664,-13.67623 0.006,-5.03202 0.0286,-10.06779 0.3217,-15.09283 0.36481,-4.74481 0.87152,-9.47923 2.2603,-14.05377 3.05494,-8.13342 6.99378,-11.08068 17.51652,-14.20004 2.00073,-0.27555 3.91182,0.0815 5.79768,0.80263 1.88343,0.69699 3.78779,1.34776 5.57745,2.27083 1.4685,0.84219 2.94127,1.70106 4.30947,2.69737 1.44047,1.13475 2.8139,2.29914 3.85661,3.83319 1.31135,1.97697 2.39769,4.05824 3.20553,6.29727 1.09091,2.68379 1.92337,5.46626 2.58073,8.2869 0.79621,3.26443 1.1777,6.61352 1.56412,9.94655 0.48955,3.60737 0.77544,7.24515 0.41595,10.88386 -0.64137,3.58139 -1.42898,7.25972 -3.33654,10.40314 -1.79112,2.62374 -4.23201,4.4998 -7.01652,6.00894 -7.88167,4.61358 -15.58831,9.57403 -24.01122,13.1605 -4.222,1.84319 -8.48372,3.59506 -12.78012,5.25773 -4.10442,1.58586 -8.13702,3.34761 -12.15343,5.14358 -0.58482,0.28499 -1.17419,0.56081 -1.75445,0.85497 -0.57922,0.29362 -2.28279,1.23826 -1.72356,0.90814 19.94581,-11.77424 11.96113,-7.14128 7.73046,-4.33578 -0.48309,0.32036 -0.97358,0.62944 -1.46037,0.94415 -6.18079,4.23079 -12.38369,8.95344 -19.41654,11.52932 -2.08919,0.40633 -4.1642,0.40836 -6.24357,-0.11117 -2.18485,-0.59357 -4.19299,-1.5591 -5.95997,-2.99605 -2.0369,-1.84567 -3.33746,-4.00255 -3.69535,-6.78203 -0.69942,-4.0046 -0.50126,-8.0371 0.0193,-12.05876 0.73734,-5.38912 1.98991,-10.68087 3.28723,-15.96 1.65648,-6.67158 3.50933,-13.30182 5.70891,-19.81607 2.3038,-6.66213 4.78619,-13.25813 7.12215,-19.9089 2.15812,-5.82405 4.52521,-11.56187 7.02224,-17.24882 2.29367,-4.98099 4.64821,-9.9755 7.83109,-14.46366 2.8939,-3.79266 5.81203,-7.56701 9.19625,-10.94629 3.11506,-3.40093 6.02412,-6.99551 9.4654,-10.08912 3.04067,-3.19614 6.29074,-6.18011 9.60153,-9.09441 0,0 13.76342,-5.57759 13.76342,-5.57759 z"
       inkscape:connector-curvature="0" />
    <path
       style="color:#000000;fill:#000000;fill-opacity:1;fill-rule:nonzero;stroke:none;stroke-width:1;marker:none;visibility:visible;display:inline;overflow:visible;enable-background:accumulate"
       id="path6979"
       d="m -287.75715,681.48027 c -4.7278,2.2376 -9.43622,4.51299 -14.10326,6.87654 -8.21374,4.66533 4.73363,-2.75585 7.12191,-4.09599 0.87853,-0.49297 -1.73168,1.03011 -2.5872,1.56202 -2.50821,1.55946 -4.94027,3.23737 -7.38886,4.88755 -4.84003,3.10887 -9.34359,6.68639 -13.53841,10.61396 -3.81514,3.68467 -6.93581,7.96438 -9.38613,12.65304 -2.03943,4.46242 -2.9653,9.23854 -3.48342,14.08158 -0.55876,5.17402 0.0996,10.32623 1.01298,15.41333 0.81668,4.49033 2.03879,8.84913 3.70356,13.09395 1.45036,3.71619 3.3697,7.15699 5.92604,10.21214 2.87402,3.42032 6.53742,5.95808 10.39325,8.14039 4.81085,2.79684 9.9489,4.92189 15.11207,6.96189 8.93369,3.92232 17.79702,8.01111 26.70797,11.99193 11.8015,5.43201 23.76857,10.48085 35.74044,15.5212 7.20404,2.89863 14.14249,6.42054 21.32456,9.36499 0.54481,0.18909 1.08365,0.39634 1.63442,0.56728 0.86809,0.26943 1.65637,0.44854 2.55047,0.57812 0.61651,0.0893 1.2715,-0.032 1.86122,0.16876 0.19454,0.0662 0.32434,0.25245 0.48651,0.37868 -4.4873,2.94955 -8.81996,6.14901 -13.46191,8.84864 -0.0621,0.0361 -4.01418,0.21305 -4.21875,0.22051 -2.58502,0.0943 -5.17184,0.11892 -7.75818,0.14387 -5.4603,-0.12645 -10.8997,0.37417 -16.34841,0.63743 -6.20814,0.35367 -12.40579,0.82547 -18.62121,1.07206 -6.77964,0.29938 -13.57514,0.0926 -20.33316,-0.49625 -5.1077,-0.41835 -10.16744,-1.31621 -15.15026,-2.49858 -3.61377,-0.89335 -6.98602,-2.5216 -10.05478,-4.60673 -3.09686,-2.17228 -3.07439,-4.17496 -2.368,-7.66999 1.78679,-5.92371 5.63158,-10.91157 9.24626,-15.83146 5.33832,-7.16577 11.25886,-13.86653 17.38971,-20.35707 7.39756,-7.67294 14.75649,-15.38205 22.1894,-23.02095 8.47096,-8.66343 16.7251,-17.53198 24.89312,-26.48073 7.52135,-7.95715 14.44863,-16.43392 21.10225,-25.12054 5.14297,-6.5943 9.67722,-13.57876 13.77137,-20.85993 2.87297,-5.17999 5.2773,-10.5801 6.75833,-16.31892 0.96912,-4.05537 1.03916,-8.15502 0.27467,-12.23374 -0.3242,-0.847 -0.7319,-3.51282 -2.25234,-3.22106 -0.25052,0.0481 -0.44946,0.24137 -0.67419,0.36206 -4.25567,2.49616 -11.41572,6.05182 8.25006,-4.68721 0.70872,-0.38701 -1.35558,0.87801 -2.02534,1.3291 -2.78777,1.8776 -2.16624,1.47431 -4.98272,3.65289 -6.35305,5.0846 -12.19271,10.76915 -17.83034,16.62543 -6.24108,6.75361 -12.01658,13.9195 -17.61737,21.2074 -5.28757,6.58762 -9.84164,13.68866 -13.85055,21.11195 -2.9335,5.77059 -5.3693,11.85112 -6.49152,18.25467 -0.23669,1.3506 -0.35598,2.71916 -0.53398,4.07874 -0.42244,7.52327 1.04721,15.0174 4.30043,21.8217 0.71759,1.50089 1.58174,2.9272 2.37262,4.39079 5.99617,10.30822 14.71927,18.51612 23.56208,26.34778 8.44953,7.35267 17.22813,14.31915 26.219,20.99577 6.34673,4.85706 12.77367,9.61347 19.07169,14.53381 3.65105,2.51946 6.92502,5.47054 10.2303,8.40427 1.80666,1.57137 3.06861,3.40648 3.77149,5.68403 0.79055,2.80925 0.10826,5.46458 -0.9836,8.07521 -1.97532,3.94304 -5.017,7.18392 -8.22448,10.15181 -8.02265,6.61155 -17.3355,11.4626 -26.50796,16.26778 -6.23286,3.21533 -12.90168,5.21453 -19.74071,6.62494 -7.28722,1.52167 -14.70137,1.74414 -22.11437,1.84932 -6.08355,-0.0592 -12.13825,-0.61656 -17.90207,-2.62611 -3.956,-1.63144 -7.72437,-3.76027 -11.01383,-6.504 -3.1272,-2.81034 -3.72474,-5.06137 -3.11899,-9.14728 1.38892,-5.42182 4.8451,-9.84419 8.30385,-14.10715 5.29245,-6.52952 11.88963,-11.7202 18.52134,-16.79867 12.24249,-8.53998 25.40881,-15.67532 38.342,-23.08534 9.45054,-5.13479 18.87314,-10.31892 28.27686,-15.53877 1.51727,-0.87663 6.08199,-3.48377 4.55182,-2.62987 -2.65422,1.48116 -5.23744,3.09041 -7.92415,4.51177 -1.38567,0.73306 2.6854,-1.61831 4.01735,-2.44496 3.69234,-2.29157 7.15738,-4.7003 10.56551,-7.39175 5.79825,-4.70262 10.75343,-10.21432 15.11465,-16.2439 3.8658,-5.39191 6.26746,-11.51491 7.81563,-17.91811 1.45299,-6.10427 1.10442,-11.96932 0.0122,-18.07319 -1.18314,-5.41159 -3.41207,-10.48848 -6.36398,-15.15218 -2.2273,-3.65928 -5.41474,-6.37031 -8.71649,-9.00127 -2.71018,-2.30866 -6.00514,-3.20617 -9.45312,-3.66132 -4.13758,-0.64676 -8.12036,0.25162 -12.09985,1.30078 -5.91775,1.60834 -11.51592,4.15736 -17.065,6.72552 -4.25106,1.7701 -8.38746,3.82537 -12.40422,6.0767 -1.00176,0.56147 -3.97454,2.30268 -2.97335,1.74018 3.14317,-1.76595 6.26642,-3.56714 9.39963,-5.3507 -4.56641,2.96676 -9.35708,6.17185 -12.34987,10.85382 -0.57564,0.90053 -1.01144,1.88315 -1.51716,2.82473 -2.38803,6.04612 -1.95145,12.58704 0.0528,18.69151 0.52284,1.59247 1.21099,3.12581 1.81649,4.68872 4.57398,10.25575 10.94216,19.54251 17.45934,28.63483 7.09173,10.03906 15.1559,19.30949 23.45725,28.35198 7.84139,8.52549 16.14221,16.59863 24.51408,24.59645 7.37705,6.9973 14.98806,13.73906 22.49914,20.58988 6.07982,5.69696 12.32989,11.20742 18.70709,16.56831 4.99878,4.41477 10.29501,8.46262 15.509691,12.61436 1.593478,1.30742 3.215993,2.5754 4.827459,3.8596 0.95925,0.76443 1.742934,1.26999 2.410639,2.297 0.212336,0.81195 0.393244,0.99488 -0.0063,1.86671 -0.482628,1.05303 -2.047173,2.03864 -2.973751,2.57553 -4.739229,2.74607 -9.524698,5.41156 -14.287048,8.11734 -4.49666,1.93704 -9.15028,3.41732 -13.90152,4.57858 -5.77009,1.08804 -11.61808,1.71467 -17.47285,2.11768 -6.42527,0.43315 -12.8521,0.40806 -19.26049,-0.21355 -4.22212,-0.66391 -8.87265,-0.41288 -12.74512,-2.44073 -0.25705,-0.28765 -0.6014,-0.51654 -0.77113,-0.86295 -1.35317,-2.76172 2.11595,-6.24782 3.63716,-8.11376 4.56186,-5.32297 10.01799,-9.72753 15.55866,-13.97482 7.43675,-5.6611 14.79239,-11.41311 21.93474,-17.44173 7.79817,-6.27922 15.08922,-13.11796 22.18115,-20.17323 6.62389,-6.3521 12.168651,-13.58912 16.916656,-21.41308 2.528189,-4.59283 4.773243,-9.37268 6.207004,-14.42962 0.698062,-2.4621 1.172412,-4.99109 1.689044,-7.49406 1.672265,-7.53599 1.072473,-15.18386 0.08804,-22.75472 -1.135269,-7.48618 -3.831706,-14.5892 -6.822976,-21.50321 -1.916854,-4.53381 -4.408516,-8.77404 -7.533659,-12.57195 -1.724058,-2.06201 -3.736873,-3.8157 -6.291543,-4.7064 -1.94003,-0.49873 -3.85779,-0.67542 -5.72817,0.0942 -4.80361,2.19022 -12.78154,6.6466 8.80461,-5.21919 0.43676,-0.24008 -0.80171,0.59422 -1.17634,0.92292 -0.45842,0.40221 -0.87982,0.84473 -1.31973,1.2671 -4.43177,4.71178 -7.85784,10.26044 -11.10923,15.82061 -2.86569,5.1063 -5.2773,10.4933 -6.81947,16.15441 -1.05988,3.89069 -1.22798,5.5037 -1.89324,9.47456 -1.54547,8.84091 -0.66518,17.70756 0.71628,26.48934 1.73763,8.92687 5.01382,17.43122 8.37816,25.84535 4.06066,9.87728 9.02997,19.3197 14.442056,28.51252 5.753446,9.64848 12.048274,18.96299 18.348092,28.2599 5.753391,8.33468 11.658956,16.56191 17.245172,25.01078 4.291263,6.43784 8.143461,13.14828 11.444114,20.14385 1.782804,3.96943 2.979173,8.1125 3.091512,12.46698 -0.122193,3.67158 -1.632646,6.8049 -3.888004,9.61439 -1.524496,1.61636 -3.298218,2.96667 -5.217415,4.08204 -9.199044,5.34619 -11.78007,7.61683 -19.651284,10.2151 -5.947158,2.06892 -12.106108,3.42089 -18.278138,4.61532 -7.870515,1.40297 -15.805325,2.45593 -23.744055,3.39548 -8.79258,0.91535 -17.63347,1.10602 -26.46527,1.23408 -7.59954,0.18421 -15.2079,-0.0166 -22.78166,-0.6669 -5.4395,-0.40933 -10.85462,-1.00723 -16.27576,-1.5997 -2.09122,-0.0828 -5.08615,-0.67378 -3.94583,-3.52009 0.19151,-0.47802 0.55281,-0.86897 0.82922,-1.30346 3.80268,-5.0645 8.5937,-9.23601 13.65513,-12.98823 12.97043,-8.31398 26.60106,-15.56827 40.54569,-22.10084 11.68277,-5.24638 23.50324,-10.17786 35.131304,-15.54601 5.081603,-2.41808 5.711654,-2.65337 10.646427,-5.25374 1.620842,-0.8541 6.399452,-3.56835 4.829888,-2.62331 -17.083389,10.28591 -3.56344,1.65818 -0.235461,-0.65238 6.534401,-4.70257 12.137492,-10.44584 17.206946,-16.6601 4.773413,-5.8342 8.371611,-12.40344 11.252273,-19.33659 2.445703,-5.94006 3.738364,-12.2056 4.069554,-18.59995 0.085,-5.99011 -1.532943,-11.71996 -3.718555,-17.23394 -2.418524,-6.05261 -6.065892,-11.4127 -10.015849,-16.54711 -3.499153,-4.5969 -7.667887,-8.57072 -12.06901,-12.28286 -3.672186,-2.784 -7.739601,-5.00414 -11.904849,-6.95302 -3.284367,-1.53721 -6.797311,-2.59717 -10.343279,-3.33741 -2.764929,-0.33412 -5.684769,-1.0612 -8.376929,-0.0837 0,0 11.808616,-9.00273 11.808616,-9.00273 l 0,0 c 2.914267,-0.35583 5.844952,0.14115 8.71225,0.67059 3.596778,0.8788 7.155683,1.99627 10.479094,3.64868 4.213286,2.09342 8.37777,4.35405 12.065327,7.30186 4.41113,3.83825 8.604984,7.91481 12.138932,12.59678 4.009464,5.25035 7.734719,10.72226 10.227261,16.88199 2.314821,5.68047 3.996074,11.57883 4.036686,17.76807 -0.232684,6.55336 -1.503561,12.98751 -3.945779,19.09384 -2.807703,7.05766 -6.331054,13.77891 -11.103478,19.73069 -5.022958,6.35796 -10.605213,12.21315 -17.12983,17.06995 -12.457536,8.81492 -25.897284,16.18825 -39.724869,22.61783 -11.65308,5.306 -23.46596,10.24933 -35.1181,15.55747 -7.03119,3.36118 -4.01425,1.86439 -10.76906,5.30253 -1.61184,0.82041 -6.27194,3.56186 -4.83293,2.46626 2.35088,-1.78987 5.10432,-2.98077 7.5955,-4.56957 2.62084,-1.67149 -10.437,6.06929 -8.01822,4.76153 -5.03189,3.52334 -9.69375,7.56157 -13.52392,12.3956 -0.28204,0.37058 -0.51344,0.78585 -0.84612,1.11173 -0.18774,0.1839 -0.45561,0.26214 -0.68583,0.38888 -0.048,0.0264 -0.18823,0.0326 -0.14858,0.0705 0.73912,0.70552 2.41244,0.29752 3.21208,0.65997 5.36939,0.64737 10.74666,1.18929 16.13622,1.64284 7.50749,0.60587 15.04077,0.82374 22.57162,0.64242 8.81421,-0.14508 17.64117,-0.36921 26.40687,-1.37983 7.94136,-0.98947 15.890694,-2.00868 23.749183,-3.53699 6.163162,-1.26615 12.305246,-2.69555 18.231894,-4.8396 0.857972,-0.32059 1.728169,-0.61019 2.573916,-0.96176 0.769485,-0.31988 2.977338,-1.48888 2.268259,-1.05112 -3.42288,2.11317 -6.951561,4.04998 -10.421631,6.08472 -0.669242,0.39243 1.362565,-0.74433 2.019076,-1.1577 0.60441,-0.38057 1.187921,-0.79452 1.760181,-1.22191 0.530217,-0.396 1.03007,-0.83109 1.545106,-1.24664 2.426918,-2.63792 3.911361,-5.00108 4.325539,-8.65766 0.08495,-4.16437 -1.038345,-8.17329 -2.627269,-12.00417 -3.140268,-6.99266 -6.980984,-13.63487 -11.1552,-20.0606 -5.52577,-8.47562 -11.449711,-16.68054 -17.12317,-25.05694 -6.329776,-9.31191 -12.622684,-18.66671 -18.401664,-28.33266 -5.46739,-9.24089 -10.49501,-18.73371 -14.62392,-28.65735 -3.4319,-8.49638 -6.83882,-17.05992 -8.59914,-26.09082 -1.44749,-8.91051 -2.40287,-17.94747 -0.86579,-26.92855 0.59534,-3.78566 0.84125,-5.91548 1.78221,-9.63651 1.45059,-5.7364 3.78402,-11.21804 6.59493,-16.41122 3.17688,-5.58904 6.52953,-11.13768 10.69812,-16.0535 0.41631,-0.44213 0.83009,-0.88664 1.24892,-1.32639 0.35139,-0.36893 0.6288,-0.83087 1.06167,-1.09958 4.78262,-2.96885 10.76112,-7.44687 16.793737,-9.24765 2.129801,-0.32739 4.268502,-0.0706 6.28717,0.70048 2.633807,1.22479 4.789966,3.12693 6.597151,5.39686 3.122425,3.96839 5.662817,8.33436 7.560553,13.02153 2.960869,7.06924 5.7403,14.27529 6.948715,21.88386 1.018471,7.6999 1.795323,15.49257 0.135634,23.17708 -0.488743,2.46008 -0.994222,5.20385 -1.6356,7.63061 -1.367269,5.17331 -3.575664,10.05416 -6.097267,14.7598 -4.711738,7.94553 -10.19279,15.33654 -16.860664,21.77489 -7.090969,7.08511 -14.323749,14.02318 -22.162219,20.29021 -7.08418,6.0349 -14.36524,11.81127 -21.76467,17.45568 -5.49037,4.14332 -10.92436,8.40649 -15.48375,13.59499 -1.35241,1.55908 -2.54721,3.02418 -3.61692,4.78222 -0.19131,0.3144 -0.40535,0.61454 -0.59801,0.92811 -0.08,0.13023 -0.25858,0.25476 -0.21958,0.40254 0.0521,0.19728 0.29233,0.28471 0.43849,0.42706 3.82198,1.65771 8.19475,1.51058 12.24601,2.14191 6.36302,0.53553 12.74191,0.51667 19.11077,0.0259 5.82302,-0.46278 11.65643,-1.09682 17.36597,-2.36167 4.71841,-1.27195 9.38125,-2.76852 13.79336,-4.89618 -20.56975,12.07974 -11.72778,6.81141 -7.13085,4.15541 -0.48083,-0.83326 -1.32887,-1.35783 -2.05525,-1.96751 -1.55997,-1.30938 -3.1383,-2.5946 -4.69223,-3.9116 -5.14702,-4.22624 -10.42252,-8.29444 -15.40718,-12.71587 -6.35414,-5.39837 -12.55285,-10.97526 -18.63545,-16.67792 -7.50527,-6.85891 -15.02453,-13.70184 -22.41792,-20.68201 -8.34939,-8.05213 -16.67619,-16.13194 -24.47565,-24.72674 -8.32115,-9.09939 -16.44245,-18.407 -23.61581,-28.45366 -6.60494,-9.17769 -12.93196,-18.60944 -17.69771,-28.90026 -0.65093,-1.59752 -1.38444,-3.16383 -1.95281,-4.79256 -2.20784,-6.32688 -2.83187,-13.1493 -0.68684,-19.56648 1.15321,-2.42735 1.58202,-3.6848 3.26812,-5.8132 2.78954,-3.5213 6.64387,-6.14395 10.3195,-8.6247 10.11374,-5.91469 20.06478,-12.223 30.91093,-16.74939 5.62563,-2.55967 11.31525,-5.05987 17.32442,-6.5869 4.13645,-0.98942 8.28598,-1.6584 12.53154,-0.88457 3.62714,0.6544 7.03003,1.86415 9.86487,4.31533 3.38587,2.76751 6.60573,5.66639 8.87834,9.46854 3.03278,4.82587 5.33288,10.08725 6.57818,15.66771 1.18427,6.19269 1.64636,12.38865 0.25884,18.61119 -1.48932,6.5591 -3.77846,12.87589 -7.63053,18.4554 -1.39792,1.99314 -2.62692,3.82131 -4.16592,5.7117 -3.25079,3.99299 -7.04606,7.50143 -10.87238,10.92778 -10.85726,8.97079 -23.69702,15.0999 -35.7209,22.30574 -9.40283,5.21811 -18.83919,10.37386 -28.26856,15.54379 2.51807,-1.47245 5.04427,-2.93106 7.55419,-4.41735 1.47143,-0.87133 -2.9618,1.71029 -4.43863,2.57243 -5.77681,3.37236 -11.49976,6.84598 -17.01241,10.63932 -6.56329,5.00128 -13.18953,10.01063 -18.474,16.4201 -3.39881,4.06673 -6.78466,8.23327 -8.43262,13.36083 -0.81852,3.39026 -0.34692,5.44948 2.38189,7.75534 3.16627,2.60591 6.78468,4.63841 10.60673,6.11893 5.66915,1.79637 11.59002,2.28004 17.52023,2.29483 7.35451,-0.11504 14.70418,-0.47761 21.91542,-2.06107 6.79262,-1.55093 13.4113,-3.68439 19.57419,-6.99631 5.92802,-3.15363 4.19692,-2.28046 -7.22322,4.38078 -0.81304,0.47424 1.63078,-0.94136 2.42648,-1.44416 0.88186,-0.55724 3.48077,-2.34694 4.35009,-2.98821 0.67593,-0.49862 1.32859,-1.02803 1.99289,-1.54204 3.23248,-2.76792 6.22573,-5.85904 8.37892,-9.56188 1.15435,-2.24486 1.9799,-4.54206 1.36539,-7.08465 -0.53671,-2.05339 -1.72122,-3.60028 -3.29806,-5.01392 -3.17996,-2.98885 -6.43003,-5.87358 -9.97416,-8.43845 -6.22369,-4.95332 -12.55643,-9.7706 -18.85216,-14.6313 -8.94257,-6.77871 -17.70546,-13.79714 -26.16563,-21.17165 -8.90527,-7.99973 -17.76141,-16.31651 -23.92395,-26.70274 -0.82199,-1.50028 -1.71625,-2.96317 -2.46596,-4.50084 -3.40477,-6.98328 -4.99056,-14.68598 -4.73354,-22.4403 0.15799,-1.39594 0.25705,-2.79981 0.47397,-4.18781 1.01834,-6.51613 3.35542,-12.7388 6.29728,-18.61368 3.95521,-7.53044 8.51925,-14.72625 13.85009,-21.36752 5.55921,-7.33779 11.3518,-14.50569 17.52317,-21.3399 5.57125,-5.88543 11.34852,-11.5957 17.61375,-16.74645 2.16864,-1.79339 4.37818,-3.62923 6.80623,-5.07512 4.07631,-2.42742 11.2621,-7.96858 17.42739,-9.47864 2.82488,0.56859 3.22782,2.1912 4.00605,4.74312 0.79549,4.27804 0.81306,8.57395 -0.10753,12.85177 -1.3847,5.89918 -3.82196,11.4252 -6.72193,16.73737 -4.14206,7.3672 -8.63926,14.48648 -13.88727,21.13088 -6.66168,8.74962 -13.58739,17.30027 -21.16532,25.28172 -8.1473,8.95354 -16.39128,17.81724 -24.82355,26.50271 -7.41713,7.608 -14.71774,15.32686 -22.10423,22.96406 -6.10022,6.42 -12.00578,13.03848 -17.3152,20.13634 -3.53797,4.7362 -7.24752,9.54755 -9.2522,15.16955 -0.8072,3.14444 -1.29599,4.09057 1.54744,6.08747 2.96753,1.94683 6.17915,3.46306 9.66441,4.22536 4.91879,1.10786 9.89053,2.0138 14.92411,2.3977 6.72182,0.51948 13.46837,0.73611 20.2055,0.36542 6.2301,-0.2784 12.44109,-0.81044 18.66841,-1.12324 5.46447,-0.29714 10.92434,-0.71105 16.40189,-0.60729 3.3344,-0.0551 6.70381,-0.0413 10.02265,-0.4136 6.04935,-0.67859 5.11278,-2.72479 -8.93153,8.0047 -0.93542,0.43985 -5.2994,-1.36006 -6.25832,-1.72568 -6.97339,-3.1847 -13.77369,-6.75221 -20.87959,-9.64901 -11.94539,-5.11441 -23.89189,-10.22376 -35.7493,-15.54038 -8.98183,-3.9288 -17.93151,-7.93843 -26.96416,-11.7446 -5.26221,-2.02852 -10.4911,-4.18614 -15.35992,-7.06038 -3.97307,-2.31983 -7.71957,-5.01649 -10.71251,-8.55388 -2.64959,-3.18397 -4.62176,-6.77491 -6.14262,-10.63139 -1.71379,-4.33559 -2.96465,-8.78691 -3.7909,-13.37992 -0.91222,-5.20572 -1.72288,-10.45757 -1.21415,-15.76038 0.4472,-4.99956 1.34071,-9.90553 3.2656,-14.57376 2.338,-4.85733 5.42311,-9.27803 9.21285,-13.12891 4.15259,-4.01545 8.59859,-7.71924 13.46499,-10.8501 9.00393,-6.03955 18.11277,-11.9106 27.83174,-16.78932 4.75557,-2.38841 9.56074,-4.67447 14.32403,-7.04668 0,0 -11.60042,9.27924 -11.60042,9.27924 z"
       inkscape:connector-curvature="0" />
  </g>
</svg>
